<?xml version="1.0" encoding="UTF-8" standalone="no"?><svg xmlns="http://www.w3.org/2000/svg" xmlns:xlink="http://www.w3.org/1999/xlink" clip-rule="evenodd" stroke-miterlimit="10" viewBox="0 0 1024 768"><desc>SVG generated by Keynote</desc><defs><linearGradient id="gradSh1.6" x1="0.0" y1="0.0" x2="100.0" y2="0.0" gradientUnits="userSpaceOnUse" gradientTransform="matrix(0.00, -1.02, -4.48, 0.00, 500.8, 735.0)"><stop offset="0.00000" stop-color="#77CD46"></stop><stop offset="0.00293" stop-color="#76CD46"></stop><stop offset="0.23314" stop-color="#5BBD3F"></stop><stop offset="0.23827" stop-color="#5ABD3F"></stop><stop offset="1.00000" stop-color="#00882B"></stop></linearGradient><linearGradient id="gradSh1.7" x1="0.0" y1="0.0" x2="100.0" y2="0.0" gradientUnits="userSpaceOnUse" gradientTransform="matrix(0.00, -1.02, -4.47, 0.00, 500.3, 612.0)"><stop offset="0.00000" stop-color="#77CD46"></stop><stop offset="0.00293" stop-color="#76CD46"></stop><stop offset="0.23314" stop-color="#5BBD3F"></stop><stop offset="0.23827" stop-color="#5ABD3F"></stop><stop offset="1.00000" stop-color="#00882B"></stop></linearGradient><linearGradient id="gradSh1.8" x1="0.0" y1="0.0" x2="100.0" y2="0.0" gradientUnits="userSpaceOnUse" gradientTransform="matrix(0.00, -1.02, -4.48, 0.00, 756.0, 221.0)"><stop offset="0.00000" stop-color="#77CD46"></stop><stop offset="0.00293" stop-color="#76CD46"></stop><stop offset="0.23314" stop-color="#5BBD3F"></stop><stop offset="0.23827" stop-color="#5ABD3F"></stop><stop offset="1.00000" stop-color="#00882B"></stop></linearGradient><linearGradient id="gradSh1.9" x1="0.0" y1="0.0" x2="100.0" y2="0.0" gradientUnits="userSpaceOnUse" gradientTransform="matrix(0.00, -1.02, -4.47, 0.00, 244.3, 221.0)"><stop offset="0.00000" stop-color="#77CD46"></stop><stop offset="0.00293" stop-color="#76CD46"></stop><stop offset="0.23314" stop-color="#5BBD3F"></stop><stop offset="0.23827" stop-color="#5ABD3F"></stop><stop offset="1.00000" stop-color="#00882B"></stop></linearGradient></defs><g transform="matrix(1.00, 0.00, -0.00, -1.00, 0.0, 768.0)"><path d="M 0.0 768.0 L 1024.0 768.0 L 1024.0 0.0 L 0.0 0.0 Z M 0.0 768.0 " fill="#FEFFFF"></path><g><clipPath id="clip0x7faf5782b030"><path d="M -79.0 768.0 L 1072.0 768.0 L 1072.0 -95.0 L -79.0 -95.0 Z M -79.5 768.0 "></path></clipPath><g clip-path="url(#clip0x7faf5782b030)"><image xlink:href="../../0099E750-43F4-4A1E-80C1-2076B752852F/assets/C1FF3D130A36DF2503109341F166E1BB.jpeg" width="4032.00" height="3024.00" transform="matrix(0.29, 0.00, -0.00, -0.29, -70.5, 807.3)"></image></g></g><g><clipPath id="clip0x7faf5782c550"><path d="M -10.0 768.0 L 500.0 768.0 L 500.0 0.0 L -10.0 0.0 Z M -10.0 768.0 "></path></clipPath><g clip-path="url(#clip0x7faf5782c550)"><image xlink:href="../../0099E750-43F4-4A1E-80C1-2076B752852F/assets/30C685843513DCD305B447E92F9A2956.jpeg" width="4032.00" height="3024.00" transform="matrix(0.25, 0.00, -0.00, -0.25, 0.0, 768.0)"></image></g></g><image xlink:href="../../0099E750-43F4-4A1E-80C1-2076B752852F/assets/EE0238F7388537B3FB8E66AEFCA9629B.png" width="452.00" height="106.00" transform="matrix(1.00, 0.00, -0.00, -1.00, 274.7, 735.5)" opacity="0.50"></image><g><clipPath id="clip0x7faf56601090"><path d="M 277.7 649.5 L 278.0 719.5 C 278.0 727.8 284.4 734.0 292.7 734.0 L 708.5 734.0 C 716.8 734.0 724.0 727.8 724.0 719.5 L 724.0 649.5 C 724.0 641.2 716.8 634.0 708.5 634.0 L 292.7 634.0 C 284.4 634.0 277.7 641.2 277.7 649.5 Z M 277.7 649.5 "></path></clipPath><g clip-path="url(#clip0x7faf56601090)"><path d="M 277.7 649.5 L 278.0 719.5 C 278.0 727.8 284.4 734.0 292.7 734.0 L 708.5 734.0 C 716.8 734.0 724.0 727.8 724.0 719.5 L 724.0 649.5 C 724.0 641.2 716.8 634.0 708.5 634.0 L 292.7 634.0 C 284.4 634.0 277.7 641.2 277.7 649.5 Z M 277.7 649.5 " fill="url(#gradSh1.6)"></path></g></g><text xml:space="preserve" font-family="Helvetica-Light,Helvetica" font-size="36.0" fill="#FEFEFE" transform="matrix(1.00, 0.00, -0.00, -1.00, 406.3, 671.3)">I</text><text xml:space="preserve" font-family="Helvetica-Light,Helvetica" font-size="36.0" fill="#FEFEFE" transform="matrix(1.00, 0.00, -0.00, -1.00, 416.3, 671.3)">’</text><text xml:space="preserve" font-family="Helvetica-Light,Helvetica" font-size="36.0" fill="#FEFEFE" transform="matrix(1.00, 0.00, -0.00, -1.00, 424.3, 671.3)">m</text><text xml:space="preserve" font-family="Helvetica-Light,Helvetica" font-size="36.0" fill="#FEFEFE" transform="matrix(1.00, 0.00, -0.00, -1.00, 454.3, 671.3)"> </text><text xml:space="preserve" font-family="Helvetica-Light,Helvetica" font-size="36.0" fill="#FEFEFE" transform="matrix(1.00, 0.00, -0.00, -1.00, 464.3, 671.3)">H</text><text xml:space="preserve" font-family="Helvetica-Light,Helvetica" font-size="36.0" fill="#FEFEFE" transform="matrix(1.00, 0.00, -0.00, -1.00, 490.3, 671.3)">u</text><text xml:space="preserve" font-family="Helvetica-Light,Helvetica" font-size="36.0" fill="#FEFEFE" transform="matrix(1.00, 0.00, -0.00, -1.00, 510.3, 671.3)">n</text><text xml:space="preserve" font-family="Helvetica-Light,Helvetica" font-size="36.0" fill="#FEFEFE" transform="matrix(1.00, 0.00, -0.00, -1.00, 530.3, 671.3)">g</text><text xml:space="preserve" font-family="Helvetica-Light,Helvetica" font-size="36.0" fill="#FEFEFE" transform="matrix(1.00, 0.00, -0.00, -1.00, 552.3, 671.3)">r</text><text xml:space="preserve" font-family="Helvetica-Light,Helvetica" font-size="36.0" fill="#FEFEFE" transform="matrix(1.00, 0.00, -0.00, -1.00, 564.9, 671.3)">y</text><text xml:space="preserve" font-family="Helvetica-Light,Helvetica" font-size="36.0" fill="#FEFEFE" transform="matrix(1.00, 0.00, -0.00, -1.00, 582.9, 671.3)">!</text><image xlink:href="../../2F28A58B-85F7-4AAF-B746-A3C69E4E5EE9/assets/CDF8AC7BA5D8D6AF43DDC4A1999EA32E.png" width="451.00" height="106.00" transform="matrix(1.00, 0.00, -0.00, -1.00, 274.7, 612.0)" opacity="0.50"></image><g><clipPath id="clip0x7faf55d8cf10"><path d="M 277.7 526.0 L 278.0 596.0 C 278.0 604.3 284.4 611.0 292.7 611.0 L 707.7 611.0 C 716.0 611.0 723.0 604.3 723.0 596.0 L 723.0 526.0 C 723.0 517.7 716.0 511.0 707.7 511.0 L 292.7 511.0 C 284.4 511.0 277.7 517.7 277.7 526.0 Z M 277.7 526.0 "></path></clipPath><g clip-path="url(#clip0x7faf55d8cf10)"><path d="M 277.7 526.0 L 278.0 596.0 C 278.0 604.3 284.4 611.0 292.7 611.0 L 707.7 611.0 C 716.0 611.0 723.0 604.3 723.0 596.0 L 723.0 526.0 C 723.0 517.7 716.0 511.0 707.7 511.0 L 292.7 511.0 C 284.4 511.0 277.7 517.7 277.7 526.0 Z M 277.7 526.0 " fill="url(#gradSh1.7)"></path></g></g><g><clipPath id="clip0x7faf55dd8210"><path d="M 274.6 511.0 L 725.8 511.0 L 725.8 611.0 L 274.6 611.0 Z M 274.6 511.0 "></path></clipPath><g clip-path="url(#clip0x7faf55dd8210)"><text xml:space="preserve" font-family="Helvetica-Light,Helvetica" font-size="33.0" fill="#FEFEFE" transform="matrix(1.00, 0.00, -0.00, -1.00, 306.7, 568.8)">I</text><text xml:space="preserve" font-family="Helvetica-Light,Helvetica" font-size="33.0" fill="#FEFEFE" transform="matrix(1.00, 0.00, -0.00, -1.00, 315.8, 568.8)"> </text><text xml:space="preserve" font-family="Helvetica-Light,Helvetica" font-size="33.0" fill="#FEFEFE" transform="matrix(1.00, 0.00, -0.00, -1.00, 325.0, 568.8)">j</text><text xml:space="preserve" font-family="Helvetica-Light,Helvetica" font-size="33.0" fill="#FEFEFE" transform="matrix(1.00, 0.00, -0.00, -1.00, 332.3, 568.8)">u</text><text xml:space="preserve" font-family="Helvetica-Light,Helvetica" font-size="33.0" fill="#FEFEFE" transform="matrix(1.00, 0.00, -0.00, -1.00, 350.7, 568.8)">s</text><text xml:space="preserve" font-family="Helvetica-Light,Helvetica" font-size="33.0" fill="#FEFEFE" transform="matrix(1.00, 0.00, -0.00, -1.00, 367.2, 568.8)">t</text><text xml:space="preserve" font-family="Helvetica-Light,Helvetica" font-size="33.0" fill="#FEFEFE" transform="matrix(1.00, 0.00, -0.00, -1.00, 376.4, 568.8)"> </text><text xml:space="preserve" font-family="Helvetica-Light,Helvetica" font-size="33.0" fill="#FEFEFE" transform="matrix(1.00, 0.00, -0.00, -1.00, 385.5, 568.8)">s</text><text xml:space="preserve" font-family="Helvetica-Light,Helvetica" font-size="33.0" fill="#FEFEFE" transform="matrix(1.00, 0.00, -0.00, -1.00, 402.0, 568.8)">p</text><text xml:space="preserve" font-family="Helvetica-Light,Helvetica" font-size="33.0" fill="#FEFEFE" transform="matrix(1.00, 0.00, -0.00, -1.00, 422.2, 568.8)">e</text><text xml:space="preserve" font-family="Helvetica-Light,Helvetica" font-size="33.0" fill="#FEFEFE" transform="matrix(1.00, 0.00, -0.00, -1.00, 440.5, 568.8)">n</text><text xml:space="preserve" font-family="Helvetica-Light,Helvetica" font-size="33.0" fill="#FEFEFE" transform="matrix(1.00, 0.00, -0.00, -1.00, 458.9, 568.8)">t</text><text xml:space="preserve" font-family="Helvetica-Light,Helvetica" font-size="33.0" fill="#FEFEFE" transform="matrix(1.00, 0.00, -0.00, -1.00, 468.1, 568.8)"> </text><text xml:space="preserve" font-family="Helvetica-Light,Helvetica" font-size="33.0" fill="#FEFEFE" transform="matrix(1.00, 0.00, -0.00, -1.00, 477.2, 568.8)">2</text><text xml:space="preserve" font-family="Helvetica-Light,Helvetica" font-size="33.0" fill="#FEFEFE" transform="matrix(1.00, 0.00, -0.00, -1.00, 495.6, 568.8)">0</text><text xml:space="preserve" font-family="Helvetica-Light,Helvetica" font-size="33.0" fill="#FEFEFE" transform="matrix(1.00, 0.00, -0.00, -1.00, 513.9, 568.8)"> </text><text xml:space="preserve" font-family="Helvetica-Light,Helvetica" font-size="33.0" fill="#FEFEFE" transform="matrix(1.00, 0.00, -0.00, -1.00, 523.1, 568.8)">m</text><text xml:space="preserve" font-family="Helvetica-Light,Helvetica" font-size="33.0" fill="#FEFEFE" transform="matrix(1.00, 0.00, -0.00, -1.00, 550.6, 568.8)">i</text><text xml:space="preserve" font-family="Helvetica-Light,Helvetica" font-size="33.0" fill="#FEFEFE" transform="matrix(1.00, 0.00, -0.00, -1.00, 557.9, 568.8)">n</text><text xml:space="preserve" font-family="Helvetica-Light,Helvetica" font-size="33.0" fill="#FEFEFE" transform="matrix(1.00, 0.00, -0.00, -1.00, 576.3, 568.8)">s</text><text xml:space="preserve" font-family="Helvetica-Light,Helvetica" font-size="33.0" fill="#FEFEFE" transform="matrix(1.00, 0.00, -0.00, -1.00, 592.8, 568.8)"> </text><text xml:space="preserve" font-family="Helvetica-Light,Helvetica" font-size="33.0" fill="#FEFEFE" transform="matrix(1.00, 0.00, -0.00, -1.00, 602.0, 568.8)">o</text><text xml:space="preserve" font-family="Helvetica-Light,Helvetica" font-size="33.0" fill="#FEFEFE" transform="matrix(1.00, 0.00, -0.00, -1.00, 620.3, 568.8)">n</text><text xml:space="preserve" font-family="Helvetica-Light,Helvetica" font-size="33.0" fill="#FEFEFE" transform="matrix(1.00, 0.00, -0.00, -1.00, 638.6, 568.8)"> </text><text xml:space="preserve" font-family="Helvetica-Light,Helvetica" font-size="33.0" fill="#FEFEFE" transform="matrix(1.00, 0.00, -0.00, -1.00, 647.8, 568.8)">t</text><text xml:space="preserve" font-family="Helvetica-Light,Helvetica" font-size="33.0" fill="#FEFEFE" transform="matrix(1.00, 0.00, -0.00, -1.00, 657.0, 568.8)">h</text><text xml:space="preserve" font-family="Helvetica-Light,Helvetica" font-size="33.0" fill="#FEFEFE" transform="matrix(1.00, 0.00, -0.00, -1.00, 675.3, 568.8)">e</text><text xml:space="preserve" font-family="Helvetica-Light,Helvetica" font-size="33.0" fill="#FEFEFE" transform="matrix(1.00, 0.00, -0.00, -1.00, 693.7, 568.8)"> </text><text xml:space="preserve" font-family="Helvetica-Light,Helvetica" font-size="33.0" fill="#FEFEFE" transform="matrix(1.00, 0.00, -0.00, -1.00, 427.4, 528.8)">I</text><text xml:space="preserve" font-family="Helvetica-Light,Helvetica" font-size="33.0" fill="#FEFEFE" transform="matrix(1.00, 0.00, -0.00, -1.00, 436.6, 528.8)">n</text><text xml:space="preserve" font-family="Helvetica-Light,Helvetica" font-size="33.0" fill="#FEFEFE" transform="matrix(1.00, 0.00, -0.00, -1.00, 455.0, 528.8)">t</text><text xml:space="preserve" font-family="Helvetica-Light,Helvetica" font-size="33.0" fill="#FEFEFE" transform="matrix(1.00, 0.00, -0.00, -1.00, 464.1, 528.8)">e</text><text xml:space="preserve" font-family="Helvetica-Light,Helvetica" font-size="33.0" fill="#FEFEFE" transform="matrix(1.00, 0.00, -0.00, -1.00, 482.5, 528.8)">r</text><text xml:space="preserve" font-family="Helvetica-Light,Helvetica" font-size="33.0" fill="#FEFEFE" transform="matrix(1.00, 0.00, -0.00, -1.00, 494.1, 528.8)">n</text><text xml:space="preserve" font-family="Helvetica-Light,Helvetica" font-size="33.0" fill="#FEFEFE" transform="matrix(1.00, 0.00, -0.00, -1.00, 512.4, 528.8)">e</text><text xml:space="preserve" font-family="Helvetica-Light,Helvetica" font-size="33.0" fill="#FEFEFE" transform="matrix(1.00, 0.00, -0.00, -1.00, 530.8, 528.8)">t</text><text xml:space="preserve" font-family="Helvetica-Light,Helvetica" font-size="33.0" fill="#FEFEFE" transform="matrix(1.00, 0.00, -0.00, -1.00, 539.9, 528.8)">…</text></g></g><image xlink:href="../../2F28A58B-85F7-4AAF-B746-A3C69E4E5EE9/assets/F591022F1BE4B14744BEF449A4BB6CB3.png" width="452.00" height="106.00" transform="matrix(1.00, 0.00, -0.00, -1.00, 529.9, 220.7)" opacity="0.50"></image><g><clipPath id="clip0x7faf5782e9b0"><path d="M 532.9 134.7 L 533.0 204.7 C 533.0 213.0 539.6 220.0 547.9 220.0 L 963.8 220.0 C 972.0 220.0 979.0 213.0 979.0 204.7 L 979.0 134.7 C 979.0 126.4 972.0 120.0 963.8 120.0 L 547.9 120.0 C 539.6 120.0 532.9 126.4 532.9 134.7 Z M 532.9 134.7 "></path></clipPath><g clip-path="url(#clip0x7faf5782e9b0)"><path d="M 532.9 134.7 L 533.0 204.7 C 533.0 213.0 539.6 220.0 547.9 220.0 L 963.8 220.0 C 972.0 220.0 979.0 213.0 979.0 204.7 L 979.0 134.7 C 979.0 126.4 972.0 120.0 963.8 120.0 L 547.9 120.0 C 539.6 120.0 532.9 126.4 532.9 134.7 Z M 532.9 134.7 " fill="url(#gradSh1.8)"></path></g></g><g><clipPath id="clip0x7faf5787e0b0"><path d="M 531.2 117.8 L 980.4 117.8 L 980.4 221.8 L 531.2 221.8 Z M 531.2 117.8 "></path></clipPath><g clip-path="url(#clip0x7faf5787e0b0)"><text xml:space="preserve" font-family="Helvetica-Light,Helvetica" font-size="36.0" fill="#FEFEFE" transform="matrix(1.00, 0.00, -0.00, -1.00, 563.1, 178.1)">I</text><text xml:space="preserve" font-family="Helvetica-Light,Helvetica" font-size="36.0" fill="#FEFEFE" transform="matrix(1.00, 0.00, -0.00, -1.00, 573.1, 178.1)"> </text><text xml:space="preserve" font-family="Helvetica-Light,Helvetica" font-size="36.0" fill="#FEFEFE" transform="matrix(1.00, 0.00, -0.00, -1.00, 583.1, 178.1)">s</text><text xml:space="preserve" font-family="Helvetica-Light,Helvetica" font-size="36.0" fill="#FEFEFE" transform="matrix(1.00, 0.00, -0.00, -1.00, 601.1, 178.1)">w</text><text xml:space="preserve" font-family="Helvetica-Light,Helvetica" font-size="36.0" fill="#FEFEFE" transform="matrix(1.00, 0.00, -0.00, -1.00, 627.1, 178.1)">e</text><text xml:space="preserve" font-family="Helvetica-Light,Helvetica" font-size="36.0" fill="#FEFEFE" transform="matrix(1.00, 0.00, -0.00, -1.00, 647.1, 178.1)">a</text><text xml:space="preserve" font-family="Helvetica-Light,Helvetica" font-size="36.0" fill="#FEFEFE" transform="matrix(1.00, 0.00, -0.00, -1.00, 667.1, 178.1)">r</text><text xml:space="preserve" font-family="Helvetica-Light,Helvetica" font-size="36.0" fill="#FEFEFE" transform="matrix(1.00, 0.00, -0.00, -1.00, 679.1, 178.1)"> </text><text xml:space="preserve" font-family="Helvetica-Light,Helvetica" font-size="36.0" fill="#FEFEFE" transform="matrix(1.00, 0.00, -0.00, -1.00, 689.1, 178.1)">t</text><text xml:space="preserve" font-family="Helvetica-Light,Helvetica" font-size="36.0" fill="#FEFEFE" transform="matrix(1.00, 0.00, -0.00, -1.00, 699.1, 178.1)">h</text><text xml:space="preserve" font-family="Helvetica-Light,Helvetica" font-size="36.0" fill="#FEFEFE" transform="matrix(1.00, 0.00, -0.00, -1.00, 719.2, 178.1)">i</text><text xml:space="preserve" font-family="Helvetica-Light,Helvetica" font-size="36.0" fill="#FEFEFE" transform="matrix(1.00, 0.00, -0.00, -1.00, 727.2, 178.1)">s</text><text xml:space="preserve" font-family="Helvetica-Light,Helvetica" font-size="36.0" fill="#FEFEFE" transform="matrix(1.00, 0.00, -0.00, -1.00, 745.2, 178.1)"> </text><text xml:space="preserve" font-family="Helvetica-Light,Helvetica" font-size="36.0" fill="#FEFEFE" transform="matrix(1.00, 0.00, -0.00, -1.00, 755.2, 178.1)">i</text><text xml:space="preserve" font-family="Helvetica-Light,Helvetica" font-size="36.0" fill="#FEFEFE" transform="matrix(1.00, 0.00, -0.00, -1.00, 763.2, 178.1)">s</text><text xml:space="preserve" font-family="Helvetica-Light,Helvetica" font-size="36.0" fill="#FEFEFE" transform="matrix(1.00, 0.00, -0.00, -1.00, 781.2, 178.1)"> </text><text xml:space="preserve" font-family="Helvetica-Light,Helvetica" font-size="36.0" fill="#FEFEFE" transform="matrix(1.00, 0.00, -0.00, -1.00, 791.2, 178.1)">w</text><text xml:space="preserve" font-family="Helvetica-Light,Helvetica" font-size="36.0" fill="#FEFEFE" transform="matrix(1.00, 0.00, -0.00, -1.00, 817.2, 178.1)">h</text><text xml:space="preserve" font-family="Helvetica-Light,Helvetica" font-size="36.0" fill="#FEFEFE" transform="matrix(1.00, 0.00, -0.00, -1.00, 837.2, 178.1)">e</text><text xml:space="preserve" font-family="Helvetica-Light,Helvetica" font-size="36.0" fill="#FEFEFE" transform="matrix(1.00, 0.00, -0.00, -1.00, 857.2, 178.1)">r</text><text xml:space="preserve" font-family="Helvetica-Light,Helvetica" font-size="36.0" fill="#FEFEFE" transform="matrix(1.00, 0.00, -0.00, -1.00, 868.5, 178.1)">e</text><text xml:space="preserve" font-family="Helvetica-Light,Helvetica" font-size="36.0" fill="#FEFEFE" transform="matrix(1.00, 0.00, -0.00, -1.00, 888.5, 178.1)"> </text><text xml:space="preserve" font-family="Helvetica-Light,Helvetica" font-size="36.0" fill="#FEFEFE" transform="matrix(1.00, 0.00, -0.00, -1.00, 898.5, 178.1)">t</text><text xml:space="preserve" font-family="Helvetica-Light,Helvetica" font-size="36.0" fill="#FEFEFE" transform="matrix(1.00, 0.00, -0.00, -1.00, 908.6, 178.1)">h</text><text xml:space="preserve" font-family="Helvetica-Light,Helvetica" font-size="36.0" fill="#FEFEFE" transform="matrix(1.00, 0.00, -0.00, -1.00, 928.6, 178.1)">e</text><text xml:space="preserve" font-family="Helvetica-Light,Helvetica" font-size="36.0" fill="#FEFEFE" transform="matrix(1.00, 0.00, -0.00, -1.00, 948.6, 178.1)"> </text><text xml:space="preserve" font-family="Helvetica-Light,Helvetica" font-size="36.0" fill="#FEFEFE" transform="matrix(1.00, 0.00, -0.00, -1.00, 958.6, 178.1)"> </text><text xml:space="preserve" font-family="Helvetica-Light,Helvetica" font-size="36.0" fill="#FEFEFE" transform="matrix(1.00, 0.00, -0.00, -1.00, 579.1, 135.1)">r</text><text xml:space="preserve" font-family="Helvetica-Light,Helvetica" font-size="36.0" fill="#FEFEFE" transform="matrix(1.00, 0.00, -0.00, -1.00, 590.5, 135.1)">e</text><text xml:space="preserve" font-family="Helvetica-Light,Helvetica" font-size="36.0" fill="#FEFEFE" transform="matrix(1.00, 0.00, -0.00, -1.00, 610.5, 135.1)">s</text><text xml:space="preserve" font-family="Helvetica-Light,Helvetica" font-size="36.0" fill="#FEFEFE" transform="matrix(1.00, 0.00, -0.00, -1.00, 628.5, 135.1)">t</text><text xml:space="preserve" font-family="Helvetica-Light,Helvetica" font-size="36.0" fill="#FEFEFE" transform="matrix(1.00, 0.00, -0.00, -1.00, 638.5, 135.1)">a</text><text xml:space="preserve" font-family="Helvetica-Light,Helvetica" font-size="36.0" fill="#FEFEFE" transform="matrix(1.00, 0.00, -0.00, -1.00, 658.5, 135.1)">u</text><text xml:space="preserve" font-family="Helvetica-Light,Helvetica" font-size="36.0" fill="#FEFEFE" transform="matrix(1.00, 0.00, -0.00, -1.00, 678.5, 135.1)">r</text><text xml:space="preserve" font-family="Helvetica-Light,Helvetica" font-size="36.0" fill="#FEFEFE" transform="matrix(1.00, 0.00, -0.00, -1.00, 690.5, 135.1)">a</text><text xml:space="preserve" font-family="Helvetica-Light,Helvetica" font-size="36.0" fill="#FEFEFE" transform="matrix(1.00, 0.00, -0.00, -1.00, 710.5, 135.1)">n</text><text xml:space="preserve" font-family="Helvetica-Light,Helvetica" font-size="36.0" fill="#FEFEFE" transform="matrix(1.00, 0.00, -0.00, -1.00, 730.5, 135.1)">t</text><text xml:space="preserve" font-family="Helvetica-Light,Helvetica" font-size="36.0" fill="#FEFEFE" transform="matrix(1.00, 0.00, -0.00, -1.00, 740.5, 135.1)"> </text><text xml:space="preserve" font-family="Helvetica-Light,Helvetica" font-size="36.0" fill="#FEFEFE" transform="matrix(1.00, 0.00, -0.00, -1.00, 750.6, 135.1)">s</text><text xml:space="preserve" font-family="Helvetica-Light,Helvetica" font-size="36.0" fill="#FEFEFE" transform="matrix(1.00, 0.00, -0.00, -1.00, 768.6, 135.1)">a</text><text xml:space="preserve" font-family="Helvetica-Light,Helvetica" font-size="36.0" fill="#FEFEFE" transform="matrix(1.00, 0.00, -0.00, -1.00, 788.6, 135.1)">i</text><text xml:space="preserve" font-family="Helvetica-Light,Helvetica" font-size="36.0" fill="#FEFEFE" transform="matrix(1.00, 0.00, -0.00, -1.00, 796.6, 135.1)">d</text><text xml:space="preserve" font-family="Helvetica-Light,Helvetica" font-size="36.0" fill="#FEFEFE" transform="matrix(1.00, 0.00, -0.00, -1.00, 818.6, 135.1)"> </text><text xml:space="preserve" font-family="Helvetica-Light,Helvetica" font-size="36.0" fill="#FEFEFE" transform="matrix(1.00, 0.00, -0.00, -1.00, 828.6, 135.1)">i</text><text xml:space="preserve" font-family="Helvetica-Light,Helvetica" font-size="36.0" fill="#FEFEFE" transform="matrix(1.00, 0.00, -0.00, -1.00, 836.6, 135.1)">t</text><text xml:space="preserve" font-family="Helvetica-Light,Helvetica" font-size="36.0" fill="#FEFEFE" transform="matrix(1.00, 0.00, -0.00, -1.00, 846.6, 135.1)"> </text><text xml:space="preserve" font-family="Helvetica-Light,Helvetica" font-size="36.0" fill="#FEFEFE" transform="matrix(1.00, 0.00, -0.00, -1.00, 856.6, 135.1)">w</text><text xml:space="preserve" font-family="Helvetica-Light,Helvetica" font-size="36.0" fill="#FEFEFE" transform="matrix(1.00, 0.00, -0.00, -1.00, 882.6, 135.1)">a</text><text xml:space="preserve" font-family="Helvetica-Light,Helvetica" font-size="36.0" fill="#FEFEFE" transform="matrix(1.00, 0.00, -0.00, -1.00, 902.6, 135.1)">s</text><text xml:space="preserve" font-family="Helvetica-Light,Helvetica" font-size="36.0" fill="#FEFEFE" transform="matrix(1.00, 0.00, -0.00, -1.00, 920.6, 135.1)">!</text></g></g><image xlink:href="../../2F28A58B-85F7-4AAF-B746-A3C69E4E5EE9/assets/0FCB3E4834DE843F0B390A7C0F2054FC.png" width="452.00" height="106.00" transform="matrix(1.00, 0.00, -0.00, -1.00, 18.6, 220.7)" opacity="0.50"></image><g><clipPath id="clip0x7faf57892950"><path d="M 21.6 134.7 L 22.0 204.7 C 22.0 213.0 28.3 220.0 36.6 220.0 L 452.4 220.0 C 460.7 220.0 467.0 213.0 467.0 204.7 L 467.0 134.7 C 467.0 126.4 460.7 120.0 452.4 120.0 L 36.6 120.0 C 28.3 120.0 21.6 126.4 21.6 134.7 Z M 21.6 134.7 "></path></clipPath><g clip-path="url(#clip0x7faf57892950)"><path d="M 21.6 134.7 L 22.0 204.7 C 22.0 213.0 28.3 220.0 36.6 220.0 L 452.4 220.0 C 460.7 220.0 467.0 213.0 467.0 204.7 L 467.0 134.7 C 467.0 126.4 460.7 120.0 452.4 120.0 L 36.6 120.0 C 28.3 120.0 21.6 126.4 21.6 134.7 Z M 21.6 134.7 " fill="url(#gradSh1.9)"></path></g></g><g><clipPath id="clip0x7faf578e4bc0"><path d="M 19.9 117.8 L 469.1 117.8 L 469.1 221.8 L 19.9 221.8 Z M 19.9 117.8 "></path></clipPath><g clip-path="url(#clip0x7faf578e4bc0)"><text xml:space="preserve" font-family="Helvetica-Light,Helvetica" font-size="36.0" fill="#FEFEFE" transform="matrix(1.00, 0.00, -0.00, -1.00, 53.4, 178.1)">O</text><text xml:space="preserve" font-family="Helvetica-Light,Helvetica" font-size="36.0" fill="#FEFEFE" transform="matrix(1.00, 0.00, -0.00, -1.00, 81.4, 178.1)">h</text><text xml:space="preserve" font-family="Helvetica-Light,Helvetica" font-size="36.0" fill="#FEFEFE" transform="matrix(1.00, 0.00, -0.00, -1.00, 101.5, 178.1)">,</text><text xml:space="preserve" font-family="Helvetica-Light,Helvetica" font-size="36.0" fill="#FEFEFE" transform="matrix(1.00, 0.00, -0.00, -1.00, 111.5, 178.1)"> </text><text xml:space="preserve" font-family="Helvetica-Light,Helvetica" font-size="36.0" fill="#FEFEFE" transform="matrix(1.00, 0.00, -0.00, -1.00, 121.5, 178.1)">ﬁ</text><text xml:space="preserve" font-family="Helvetica-Light,Helvetica" font-size="36.0" fill="#FEFEFE" transform="matrix(1.00, 0.00, -0.00, -1.00, 139.5, 178.1)">v</text><text xml:space="preserve" font-family="Helvetica-Light,Helvetica" font-size="36.0" fill="#FEFEFE" transform="matrix(1.00, 0.00, -0.00, -1.00, 157.5, 178.1)">e</text><text xml:space="preserve" font-family="Helvetica-Light,Helvetica" font-size="36.0" fill="#FEFEFE" transform="matrix(1.00, 0.00, -0.00, -1.00, 177.5, 178.1)">-</text><text xml:space="preserve" font-family="Helvetica-Light,Helvetica" font-size="36.0" fill="#FEFEFE" transform="matrix(1.00, 0.00, -0.00, -1.00, 189.5, 178.1)">s</text><text xml:space="preserve" font-family="Helvetica-Light,Helvetica" font-size="36.0" fill="#FEFEFE" transform="matrix(1.00, 0.00, -0.00, -1.00, 207.5, 178.1)">t</text><text xml:space="preserve" font-family="Helvetica-Light,Helvetica" font-size="36.0" fill="#FEFEFE" transform="matrix(1.00, 0.00, -0.00, -1.00, 217.5, 178.1)">a</text><text xml:space="preserve" font-family="Helvetica-Light,Helvetica" font-size="36.0" fill="#FEFEFE" transform="matrix(1.00, 0.00, -0.00, -1.00, 237.5, 178.1)">r</text><text xml:space="preserve" font-family="Helvetica-Light,Helvetica" font-size="36.0" fill="#FEFEFE" transform="matrix(1.00, 0.00, -0.00, -1.00, 249.5, 178.1)"> </text><text xml:space="preserve" font-family="Helvetica-Light,Helvetica" font-size="36.0" fill="#FEFEFE" transform="matrix(1.00, 0.00, -0.00, -1.00, 259.5, 178.1)">s</text><text xml:space="preserve" font-family="Helvetica-Light,Helvetica" font-size="36.0" fill="#FEFEFE" transform="matrix(1.00, 0.00, -0.00, -1.00, 277.5, 178.1)">t</text><text xml:space="preserve" font-family="Helvetica-Light,Helvetica" font-size="36.0" fill="#FEFEFE" transform="matrix(1.00, 0.00, -0.00, -1.00, 287.5, 178.1)">e</text><text xml:space="preserve" font-family="Helvetica-Light,Helvetica" font-size="36.0" fill="#FEFEFE" transform="matrix(1.00, 0.00, -0.00, -1.00, 307.5, 178.1)">a</text><text xml:space="preserve" font-family="Helvetica-Light,Helvetica" font-size="36.0" fill="#FEFEFE" transform="matrix(1.00, 0.00, -0.00, -1.00, 327.5, 178.1)">k</text><text xml:space="preserve" font-family="Helvetica-Light,Helvetica" font-size="36.0" fill="#FEFEFE" transform="matrix(1.00, 0.00, -0.00, -1.00, 345.5, 178.1)">s</text><text xml:space="preserve" font-family="Helvetica-Light,Helvetica" font-size="36.0" fill="#FEFEFE" transform="matrix(1.00, 0.00, -0.00, -1.00, 363.5, 178.1)">,</text><text xml:space="preserve" font-family="Helvetica-Light,Helvetica" font-size="36.0" fill="#FEFEFE" transform="matrix(1.00, 0.00, -0.00, -1.00, 373.6, 178.1)"> </text><text xml:space="preserve" font-family="Helvetica-Light,Helvetica" font-size="36.0" fill="#FEFEFE" transform="matrix(1.00, 0.00, -0.00, -1.00, 383.6, 178.1)">b</text><text xml:space="preserve" font-family="Helvetica-Light,Helvetica" font-size="36.0" fill="#FEFEFE" transform="matrix(1.00, 0.00, -0.00, -1.00, 405.6, 178.1)">u</text><text xml:space="preserve" font-family="Helvetica-Light,Helvetica" font-size="36.0" fill="#FEFEFE" transform="matrix(1.00, 0.00, -0.00, -1.00, 425.6, 178.1)">t</text><text xml:space="preserve" font-family="Helvetica-Light,Helvetica" font-size="36.0" fill="#FEFEFE" transform="matrix(1.00, 0.00, -0.00, -1.00, 435.6, 178.1)"> </text><text xml:space="preserve" font-family="Helvetica-Light,Helvetica" font-size="36.0" fill="#FEFEFE" transform="matrix(1.00, 0.00, -0.00, -1.00, 71.8, 135.1)">A</text><text xml:space="preserve" font-family="Helvetica-Light,Helvetica" font-size="36.0" fill="#FEFEFE" transform="matrix(1.00, 0.00, -0.00, -1.00, 95.8, 135.1)">t</text><text xml:space="preserve" font-family="Helvetica-Light,Helvetica" font-size="36.0" fill="#FEFEFE" transform="matrix(1.00, 0.00, -0.00, -1.00, 105.8, 135.1)">t</text><text xml:space="preserve" font-family="Helvetica-Light,Helvetica" font-size="36.0" fill="#FEFEFE" transform="matrix(1.00, 0.00, -0.00, -1.00, 115.8, 135.1)">i</text><text xml:space="preserve" font-family="Helvetica-Light,Helvetica" font-size="36.0" fill="#FEFEFE" transform="matrix(1.00, 0.00, -0.00, -1.00, 123.8, 135.1)">l</text><text xml:space="preserve" font-family="Helvetica-Light,Helvetica" font-size="36.0" fill="#FEFEFE" transform="matrix(1.00, 0.00, -0.00, -1.00, 131.8, 135.1)">a</text><text xml:space="preserve" font-family="Helvetica-Light,Helvetica" font-size="36.0" fill="#FEFEFE" transform="matrix(1.00, 0.00, -0.00, -1.00, 151.8, 135.1)">’</text><text xml:space="preserve" font-family="Helvetica-Light,Helvetica" font-size="36.0" fill="#FEFEFE" transform="matrix(1.00, 0.00, -0.00, -1.00, 157.1, 135.1)">s</text><text xml:space="preserve" font-family="Helvetica-Light,Helvetica" font-size="36.0" fill="#FEFEFE" transform="matrix(1.00, 0.00, -0.00, -1.00, 175.1, 135.1)"> </text><text xml:space="preserve" font-family="Helvetica-Light,Helvetica" font-size="36.0" fill="#FEFEFE" transform="matrix(1.00, 0.00, -0.00, -1.00, 185.1, 135.1)">a</text><text xml:space="preserve" font-family="Helvetica-Light,Helvetica" font-size="36.0" fill="#FEFEFE" transform="matrix(1.00, 0.00, -0.00, -1.00, 205.2, 135.1)"> </text><text xml:space="preserve" font-family="Helvetica-Light,Helvetica" font-size="36.0" fill="#FEFEFE" transform="matrix(1.00, 0.00, -0.00, -1.00, 215.2, 135.1)">v</text><text xml:space="preserve" font-family="Helvetica-Light,Helvetica" font-size="36.0" fill="#FEFEFE" transform="matrix(1.00, 0.00, -0.00, -1.00, 233.2, 135.1)">e</text><text xml:space="preserve" font-family="Helvetica-Light,Helvetica" font-size="36.0" fill="#FEFEFE" transform="matrix(1.00, 0.00, -0.00, -1.00, 253.2, 135.1)">g</text><text xml:space="preserve" font-family="Helvetica-Light,Helvetica" font-size="36.0" fill="#FEFEFE" transform="matrix(1.00, 0.00, -0.00, -1.00, 275.2, 135.1)">e</text><text xml:space="preserve" font-family="Helvetica-Light,Helvetica" font-size="36.0" fill="#FEFEFE" transform="matrix(1.00, 0.00, -0.00, -1.00, 295.2, 135.1)">t</text><text xml:space="preserve" font-family="Helvetica-Light,Helvetica" font-size="36.0" fill="#FEFEFE" transform="matrix(1.00, 0.00, -0.00, -1.00, 305.2, 135.1)">a</text><text xml:space="preserve" font-family="Helvetica-Light,Helvetica" font-size="36.0" fill="#FEFEFE" transform="matrix(1.00, 0.00, -0.00, -1.00, 325.2, 135.1)">r</text><text xml:space="preserve" font-family="Helvetica-Light,Helvetica" font-size="36.0" fill="#FEFEFE" transform="matrix(1.00, 0.00, -0.00, -1.00, 337.2, 135.1)">i</text><text xml:space="preserve" font-family="Helvetica-Light,Helvetica" font-size="36.0" fill="#FEFEFE" transform="matrix(1.00, 0.00, -0.00, -1.00, 345.2, 135.1)">a</text><text xml:space="preserve" font-family="Helvetica-Light,Helvetica" font-size="36.0" fill="#FEFEFE" transform="matrix(1.00, 0.00, -0.00, -1.00, 365.2, 135.1)">n</text><text xml:space="preserve" font-family="Helvetica-Light,Helvetica" font-size="36.0" fill="#FEFEFE" transform="matrix(1.00, 0.00, -0.00, -1.00, 385.2, 135.1)"> </text><text xml:space="preserve" font-family="Helvetica-Light,Helvetica" font-size="36.0" fill="#FEFEFE" transform="matrix(1.00, 0.00, -0.00, -1.00, 395.2, 135.1)">:</text><text xml:space="preserve" font-family="Helvetica-Light,Helvetica" font-size="36.0" fill="#FEFEFE" transform="matrix(1.00, 0.00, -0.00, -1.00, 405.2, 135.1)">(</text></g></g></g></svg>