<?xml version="1.0" encoding="UTF-8" standalone="no"?><svg xmlns="http://www.w3.org/2000/svg" xmlns:xlink="http://www.w3.org/1999/xlink" clip-rule="evenodd" stroke-miterlimit="10" viewBox="0 0 1024 768"><desc>SVG generated by Keynote</desc><defs><linearGradient id="gradSh1.17" x1="0.0" y1="0.0" x2="100.0" y2="0.0" gradientUnits="userSpaceOnUse" gradientTransform="matrix(0.00, -1.02, -4.47, 0.00, 258.5, 677.0)"><stop offset="0.00000" stop-color="#77CD46"></stop><stop offset="0.00293" stop-color="#76CD46"></stop><stop offset="0.23314" stop-color="#5BBD3F"></stop><stop offset="0.23827" stop-color="#5ABD3F"></stop><stop offset="1.00000" stop-color="#00882B"></stop></linearGradient><linearGradient id="gradSh1.18" x1="0.0" y1="0.0" x2="100.0" y2="0.0" gradientUnits="userSpaceOnUse" gradientTransform="matrix(0.00, -1.02, -4.47, 0.00, 258.5, 556.0)"><stop offset="0.00000" stop-color="#77CD46"></stop><stop offset="0.00293" stop-color="#76CD46"></stop><stop offset="0.23314" stop-color="#5BBD3F"></stop><stop offset="0.23827" stop-color="#5ABD3F"></stop><stop offset="1.00000" stop-color="#00882B"></stop></linearGradient><linearGradient id="gradSh1.19" x1="0.0" y1="0.0" x2="100.0" y2="0.0" gradientUnits="userSpaceOnUse" gradientTransform="matrix(0.00, -1.02, -4.47, 0.00, 258.5, 314.0)"><stop offset="0.00000" stop-color="#77CD46"></stop><stop offset="0.00293" stop-color="#76CD46"></stop><stop offset="0.23314" stop-color="#5BBD3F"></stop><stop offset="0.23827" stop-color="#5ABD3F"></stop><stop offset="1.00000" stop-color="#00882B"></stop></linearGradient><linearGradient id="gradSh1.20" x1="0.0" y1="0.0" x2="100.0" y2="0.0" gradientUnits="userSpaceOnUse" gradientTransform="matrix(0.00, -1.02, -4.47, 0.00, 765.5, 314.0)"><stop offset="0.00000" stop-color="#77CD46"></stop><stop offset="0.00293" stop-color="#76CD46"></stop><stop offset="0.23314" stop-color="#5BBD3F"></stop><stop offset="0.23827" stop-color="#5ABD3F"></stop><stop offset="1.00000" stop-color="#00882B"></stop></linearGradient><linearGradient id="gradSh1.21" x1="0.0" y1="0.0" x2="100.0" y2="0.0" gradientUnits="userSpaceOnUse" gradientTransform="matrix(0.00, -1.02, -4.47, 0.00, 258.5, 193.0)"><stop offset="0.00000" stop-color="#77CD46"></stop><stop offset="0.00293" stop-color="#76CD46"></stop><stop offset="0.23314" stop-color="#5BBD3F"></stop><stop offset="0.23827" stop-color="#5ABD3F"></stop><stop offset="1.00000" stop-color="#00882B"></stop></linearGradient><linearGradient id="gradSh1.22" x1="0.0" y1="0.0" x2="100.0" y2="0.0" gradientUnits="userSpaceOnUse" gradientTransform="matrix(0.00, -1.02, -4.47, 0.00, 258.5, 435.0)"><stop offset="0.00000" stop-color="#77CD46"></stop><stop offset="0.00293" stop-color="#76CD46"></stop><stop offset="0.23314" stop-color="#5BBD3F"></stop><stop offset="0.23827" stop-color="#5ABD3F"></stop><stop offset="1.00000" stop-color="#00882B"></stop></linearGradient><linearGradient id="gradSh1.23" x1="0.0" y1="0.0" x2="100.0" y2="0.0" gradientUnits="userSpaceOnUse" gradientTransform="matrix(0.00, -1.02, -4.47, 0.00, 765.5, 193.0)"><stop offset="0.00000" stop-color="#77CD46"></stop><stop offset="0.00293" stop-color="#76CD46"></stop><stop offset="0.23314" stop-color="#5BBD3F"></stop><stop offset="0.23827" stop-color="#5ABD3F"></stop><stop offset="1.00000" stop-color="#00882B"></stop></linearGradient></defs><g transform="matrix(1.00, 0.00, -0.00, -1.00, 0.0, 768.0)"><path d="M 0.0 768.0 L 1024.0 768.0 L 1024.0 0.0 L 0.0 0.0 Z M 0.0 768.0 " fill="#FEFFFF"></path><image xlink:href="../../1A8CF106-3106-479A-A6D3-3361A5EA2176/assets/1C9EB1AD5F8F3F1E61C291656981B39C.png" width="451.00" height="106.00" transform="matrix(1.00, 0.00, -0.00, -1.00, 33.4, 677.0)" opacity="0.50"></image><g><clipPath id="clip0x7faf55de6450"><path d="M 36.4 591.0 L 36.0 661.0 C 36.0 669.3 43.1 676.0 51.3 676.0 L 466.4 676.0 C 474.6 676.0 481.0 669.3 481.0 661.0 L 481.0 591.0 C 481.0 582.7 474.6 576.0 466.4 576.0 L 51.3 576.0 C 43.1 576.0 36.4 582.7 36.4 591.0 Z M 36.4 591.0 "></path></clipPath><g clip-path="url(#clip0x7faf55de6450)"><path d="M 36.4 591.0 L 36.0 661.0 C 36.0 669.3 43.1 676.0 51.3 676.0 L 466.4 676.0 C 474.6 676.0 481.0 669.3 481.0 661.0 L 481.0 591.0 C 481.0 582.7 474.6 576.0 466.4 576.0 L 51.3 576.0 C 43.1 576.0 36.4 582.7 36.4 591.0 Z M 36.4 591.0 " fill="url(#gradSh1.17)"></path></g></g><g><clipPath id="clip0x7faf57e40250"><path d="M 32.1 576.0 L 485.6 576.0 L 485.6 676.0 L 32.1 676.0 Z M 32.1 576.0 "></path></clipPath><g clip-path="url(#clip0x7faf57e40250)"><text xml:space="preserve" font-family="Helvetica-Light,Helvetica" font-size="33.0" fill="#FEFEFE" transform="matrix(1.00, 0.00, -0.00, -1.00, 127.7, 613.7)">F</text><text xml:space="preserve" font-family="Helvetica-Light,Helvetica" font-size="33.0" fill="#FEFEFE" transform="matrix(1.00, 0.00, -0.00, -1.00, 146.0, 613.7)">e</text><text xml:space="preserve" font-family="Helvetica-Light,Helvetica" font-size="33.0" fill="#FEFEFE" transform="matrix(1.00, 0.00, -0.00, -1.00, 164.4, 613.7)">t</text><text xml:space="preserve" font-family="Helvetica-Light,Helvetica" font-size="33.0" fill="#FEFEFE" transform="matrix(1.00, 0.00, -0.00, -1.00, 173.5, 613.7)">c</text><text xml:space="preserve" font-family="Helvetica-Light,Helvetica" font-size="33.0" fill="#FEFEFE" transform="matrix(1.00, 0.00, -0.00, -1.00, 191.9, 613.7)">h</text><text xml:space="preserve" font-family="Helvetica-Light,Helvetica" font-size="33.0" fill="#FEFEFE" transform="matrix(1.00, 0.00, -0.00, -1.00, 210.2, 613.7)"> </text><text xml:space="preserve" font-family="Helvetica-Light,Helvetica" font-size="33.0" fill="#FEFEFE" transform="matrix(1.00, 0.00, -0.00, -1.00, 219.4, 613.7)">t</text><text xml:space="preserve" font-family="Helvetica-Light,Helvetica" font-size="33.0" fill="#FEFEFE" transform="matrix(1.00, 0.00, -0.00, -1.00, 228.6, 613.7)">h</text><text xml:space="preserve" font-family="Helvetica-Light,Helvetica" font-size="33.0" fill="#FEFEFE" transform="matrix(1.00, 0.00, -0.00, -1.00, 246.9, 613.7)">e</text><text xml:space="preserve" font-family="Helvetica-Light,Helvetica" font-size="33.0" fill="#FEFEFE" transform="matrix(1.00, 0.00, -0.00, -1.00, 265.3, 613.7)"> </text><text xml:space="preserve" font-family="Helvetica-Light,Helvetica" font-size="33.0" fill="#FEFEFE" transform="matrix(1.00, 0.00, -0.00, -1.00, 274.5, 613.7)">l</text><text xml:space="preserve" font-family="Helvetica-Light,Helvetica" font-size="33.0" fill="#FEFEFE" transform="matrix(1.00, 0.00, -0.00, -1.00, 281.8, 613.7)">o</text><text xml:space="preserve" font-family="Helvetica-Light,Helvetica" font-size="33.0" fill="#FEFEFE" transform="matrix(1.00, 0.00, -0.00, -1.00, 300.1, 613.7)">c</text><text xml:space="preserve" font-family="Helvetica-Light,Helvetica" font-size="33.0" fill="#FEFEFE" transform="matrix(1.00, 0.00, -0.00, -1.00, 318.5, 613.7)">a</text><text xml:space="preserve" font-family="Helvetica-Light,Helvetica" font-size="33.0" fill="#FEFEFE" transform="matrix(1.00, 0.00, -0.00, -1.00, 336.8, 613.7)">t</text><text xml:space="preserve" font-family="Helvetica-Light,Helvetica" font-size="33.0" fill="#FEFEFE" transform="matrix(1.00, 0.00, -0.00, -1.00, 346.0, 613.7)">i</text><text xml:space="preserve" font-family="Helvetica-Light,Helvetica" font-size="33.0" fill="#FEFEFE" transform="matrix(1.00, 0.00, -0.00, -1.00, 353.3, 613.7)">o</text><text xml:space="preserve" font-family="Helvetica-Light,Helvetica" font-size="33.0" fill="#FEFEFE" transform="matrix(1.00, 0.00, -0.00, -1.00, 371.7, 613.7)">n</text></g></g><image xlink:href="../../1A8CF106-3106-479A-A6D3-3361A5EA2176/assets/1C9EB1AD5F8F3F1E61C291656981B39C.png" width="451.00" height="106.00" transform="matrix(1.00, 0.00, -0.00, -1.00, 33.4, 556.0)" opacity="0.50"></image><g><clipPath id="clip0x7faf57e43e70"><path d="M 36.4 470.0 L 36.0 540.0 C 36.0 548.3 43.1 555.0 51.3 555.0 L 466.4 555.0 C 474.6 555.0 481.0 548.3 481.0 540.0 L 481.0 470.0 C 481.0 461.7 474.6 455.0 466.4 455.0 L 51.3 455.0 C 43.1 455.0 36.4 461.7 36.4 470.0 Z M 36.4 470.0 "></path></clipPath><g clip-path="url(#clip0x7faf57e43e70)"><path d="M 36.4 470.0 L 36.0 540.0 C 36.0 548.3 43.1 555.0 51.3 555.0 L 466.4 555.0 C 474.6 555.0 481.0 548.3 481.0 540.0 L 481.0 470.0 C 481.0 461.7 474.6 455.0 466.4 455.0 L 51.3 455.0 C 43.1 455.0 36.4 461.7 36.4 470.0 Z M 36.4 470.0 " fill="url(#gradSh1.18)"></path></g></g><g><clipPath id="clip0x7faf57e95dc0"><path d="M 33.2 455.0 L 484.5 455.0 L 484.5 555.0 L 33.2 555.0 Z M 33.2 455.0 "></path></clipPath><g clip-path="url(#clip0x7faf57e95dc0)"><text xml:space="preserve" font-family="Helvetica-Light,Helvetica" font-size="33.0" fill="#FEFEFE" transform="matrix(1.00, 0.00, -0.00, -1.00, 112.4, 512.8)">L</text><text xml:space="preserve" font-family="Helvetica-Light,Helvetica" font-size="33.0" fill="#FEFEFE" transform="matrix(1.00, 0.00, -0.00, -1.00, 130.8, 512.8)">i</text><text xml:space="preserve" font-family="Helvetica-Light,Helvetica" font-size="33.0" fill="#FEFEFE" transform="matrix(1.00, 0.00, -0.00, -1.00, 138.1, 512.8)">v</text><text xml:space="preserve" font-family="Helvetica-Light,Helvetica" font-size="33.0" fill="#FEFEFE" transform="matrix(1.00, 0.00, -0.00, -1.00, 154.6, 512.8)">e</text><text xml:space="preserve" font-family="Helvetica-Light,Helvetica" font-size="33.0" fill="#FEFEFE" transform="matrix(1.00, 0.00, -0.00, -1.00, 172.9, 512.8)"> </text><text xml:space="preserve" font-family="Helvetica-Light,Helvetica" font-size="33.0" fill="#FEFEFE" transform="matrix(1.00, 0.00, -0.00, -1.00, 182.1, 512.8)">r</text><text xml:space="preserve" font-family="Helvetica-Light,Helvetica" font-size="33.0" fill="#FEFEFE" transform="matrix(1.00, 0.00, -0.00, -1.00, 192.5, 512.8)">e</text><text xml:space="preserve" font-family="Helvetica-Light,Helvetica" font-size="33.0" fill="#FEFEFE" transform="matrix(1.00, 0.00, -0.00, -1.00, 210.9, 512.8)">q</text><text xml:space="preserve" font-family="Helvetica-Light,Helvetica" font-size="33.0" fill="#FEFEFE" transform="matrix(1.00, 0.00, -0.00, -1.00, 231.0, 512.8)">u</text><text xml:space="preserve" font-family="Helvetica-Light,Helvetica" font-size="33.0" fill="#FEFEFE" transform="matrix(1.00, 0.00, -0.00, -1.00, 249.4, 512.8)">e</text><text xml:space="preserve" font-family="Helvetica-Light,Helvetica" font-size="33.0" fill="#FEFEFE" transform="matrix(1.00, 0.00, -0.00, -1.00, 267.7, 512.8)">s</text><text xml:space="preserve" font-family="Helvetica-Light,Helvetica" font-size="33.0" fill="#FEFEFE" transform="matrix(1.00, 0.00, -0.00, -1.00, 284.2, 512.8)">t</text><text xml:space="preserve" font-family="Helvetica-Light,Helvetica" font-size="33.0" fill="#FEFEFE" transform="matrix(1.00, 0.00, -0.00, -1.00, 293.4, 512.8)"> </text><text xml:space="preserve" font-family="Helvetica-Light,Helvetica" font-size="33.0" fill="#FEFEFE" transform="matrix(1.00, 0.00, -0.00, -1.00, 302.6, 512.8)">n</text><text xml:space="preserve" font-family="Helvetica-Light,Helvetica" font-size="33.0" fill="#FEFEFE" transform="matrix(1.00, 0.00, -0.00, -1.00, 320.9, 512.8)">e</text><text xml:space="preserve" font-family="Helvetica-Light,Helvetica" font-size="33.0" fill="#FEFEFE" transform="matrix(1.00, 0.00, -0.00, -1.00, 339.3, 512.8)">a</text><text xml:space="preserve" font-family="Helvetica-Light,Helvetica" font-size="33.0" fill="#FEFEFE" transform="matrix(1.00, 0.00, -0.00, -1.00, 357.6, 512.8)">r</text><text xml:space="preserve" font-family="Helvetica-Light,Helvetica" font-size="33.0" fill="#FEFEFE" transform="matrix(1.00, 0.00, -0.00, -1.00, 368.6, 512.8)">b</text><text xml:space="preserve" font-family="Helvetica-Light,Helvetica" font-size="33.0" fill="#FEFEFE" transform="matrix(1.00, 0.00, -0.00, -1.00, 388.8, 512.8)">y</text><text xml:space="preserve" font-family="Helvetica-Light,Helvetica" font-size="33.0" fill="#FEFEFE" transform="matrix(1.00, 0.00, -0.00, -1.00, 405.3, 512.8)"> </text><text xml:space="preserve" font-family="Helvetica-Light,Helvetica" font-size="33.0" fill="#FEFEFE" transform="matrix(1.00, 0.00, -0.00, -1.00, 176.6, 472.8)">r</text><text xml:space="preserve" font-family="Helvetica-Light,Helvetica" font-size="33.0" fill="#FEFEFE" transform="matrix(1.00, 0.00, -0.00, -1.00, 187.0, 472.8)">e</text><text xml:space="preserve" font-family="Helvetica-Light,Helvetica" font-size="33.0" fill="#FEFEFE" transform="matrix(1.00, 0.00, -0.00, -1.00, 205.4, 472.8)">s</text><text xml:space="preserve" font-family="Helvetica-Light,Helvetica" font-size="33.0" fill="#FEFEFE" transform="matrix(1.00, 0.00, -0.00, -1.00, 221.9, 472.8)">t</text><text xml:space="preserve" font-family="Helvetica-Light,Helvetica" font-size="33.0" fill="#FEFEFE" transform="matrix(1.00, 0.00, -0.00, -1.00, 231.0, 472.8)">a</text><text xml:space="preserve" font-family="Helvetica-Light,Helvetica" font-size="33.0" fill="#FEFEFE" transform="matrix(1.00, 0.00, -0.00, -1.00, 249.4, 472.8)">u</text><text xml:space="preserve" font-family="Helvetica-Light,Helvetica" font-size="33.0" fill="#FEFEFE" transform="matrix(1.00, 0.00, -0.00, -1.00, 267.7, 472.8)">r</text><text xml:space="preserve" font-family="Helvetica-Light,Helvetica" font-size="33.0" fill="#FEFEFE" transform="matrix(1.00, 0.00, -0.00, -1.00, 278.7, 472.8)">a</text><text xml:space="preserve" font-family="Helvetica-Light,Helvetica" font-size="33.0" fill="#FEFEFE" transform="matrix(1.00, 0.00, -0.00, -1.00, 297.1, 472.8)">n</text><text xml:space="preserve" font-family="Helvetica-Light,Helvetica" font-size="33.0" fill="#FEFEFE" transform="matrix(1.00, 0.00, -0.00, -1.00, 315.4, 472.8)">t</text><text xml:space="preserve" font-family="Helvetica-Light,Helvetica" font-size="33.0" fill="#FEFEFE" transform="matrix(1.00, 0.00, -0.00, -1.00, 324.6, 472.8)">s</text></g></g><image xlink:href="../../1A8CF106-3106-479A-A6D3-3361A5EA2176/assets/1C9EB1AD5F8F3F1E61C291656981B39C.png" width="451.00" height="106.00" transform="matrix(1.00, 0.00, -0.00, -1.00, 33.4, 314.0)" opacity="0.50"></image><g><clipPath id="clip0x7faf57bd8810"><path d="M 36.4 228.0 L 36.0 298.0 C 36.0 306.3 43.1 313.0 51.3 313.0 L 466.4 313.0 C 474.6 313.0 481.0 306.3 481.0 298.0 L 481.0 228.0 C 481.0 219.7 474.6 213.0 466.4 213.0 L 51.3 213.0 C 43.1 213.0 36.4 219.7 36.4 228.0 Z M 36.4 228.0 "></path></clipPath><g clip-path="url(#clip0x7faf57bd8810)"><path d="M 36.4 228.0 L 36.0 298.0 C 36.0 306.3 43.1 313.0 51.3 313.0 L 466.4 313.0 C 474.6 313.0 481.0 306.3 481.0 298.0 L 481.0 228.0 C 481.0 219.7 474.6 213.0 466.4 213.0 L 51.3 213.0 C 43.1 213.0 36.4 219.7 36.4 228.0 Z M 36.4 228.0 " fill="url(#gradSh1.19)"></path></g></g><g><clipPath id="clip0x7faf57f2e2c0"><path d="M 33.2 213.0 L 484.5 213.0 L 484.5 313.0 L 33.2 313.0 Z M 33.2 213.0 "></path></clipPath><g clip-path="url(#clip0x7faf57f2e2c0)"><text xml:space="preserve" font-family="Helvetica-Light,Helvetica" font-size="33.0" fill="#FEFEFE" transform="matrix(1.00, 0.00, -0.00, -1.00, 99.3, 270.8)">U</text><text xml:space="preserve" font-family="Helvetica-Light,Helvetica" font-size="33.0" fill="#FEFEFE" transform="matrix(1.00, 0.00, -0.00, -1.00, 123.1, 270.8)">s</text><text xml:space="preserve" font-family="Helvetica-Light,Helvetica" font-size="33.0" fill="#FEFEFE" transform="matrix(1.00, 0.00, -0.00, -1.00, 139.6, 270.8)">e</text><text xml:space="preserve" font-family="Helvetica-Light,Helvetica" font-size="33.0" fill="#FEFEFE" transform="matrix(1.00, 0.00, -0.00, -1.00, 158.0, 270.8)">r</text><text xml:space="preserve" font-family="Helvetica-Light,Helvetica" font-size="33.0" fill="#FEFEFE" transform="matrix(1.00, 0.00, -0.00, -1.00, 169.0, 270.8)"> </text><text xml:space="preserve" font-family="Helvetica-Light,Helvetica" font-size="33.0" fill="#FEFEFE" transform="matrix(1.00, 0.00, -0.00, -1.00, 178.1, 270.8)">l</text><text xml:space="preserve" font-family="Helvetica-Light,Helvetica" font-size="33.0" fill="#FEFEFE" transform="matrix(1.00, 0.00, -0.00, -1.00, 185.5, 270.8)">o</text><text xml:space="preserve" font-family="Helvetica-Light,Helvetica" font-size="33.0" fill="#FEFEFE" transform="matrix(1.00, 0.00, -0.00, -1.00, 203.8, 270.8)">c</text><text xml:space="preserve" font-family="Helvetica-Light,Helvetica" font-size="33.0" fill="#FEFEFE" transform="matrix(1.00, 0.00, -0.00, -1.00, 222.2, 270.8)">a</text><text xml:space="preserve" font-family="Helvetica-Light,Helvetica" font-size="33.0" fill="#FEFEFE" transform="matrix(1.00, 0.00, -0.00, -1.00, 240.5, 270.8)">t</text><text xml:space="preserve" font-family="Helvetica-Light,Helvetica" font-size="33.0" fill="#FEFEFE" transform="matrix(1.00, 0.00, -0.00, -1.00, 249.7, 270.8)">i</text><text xml:space="preserve" font-family="Helvetica-Light,Helvetica" font-size="33.0" fill="#FEFEFE" transform="matrix(1.00, 0.00, -0.00, -1.00, 257.0, 270.8)">o</text><text xml:space="preserve" font-family="Helvetica-Light,Helvetica" font-size="33.0" fill="#FEFEFE" transform="matrix(1.00, 0.00, -0.00, -1.00, 275.3, 270.8)">n</text><text xml:space="preserve" font-family="Helvetica-Light,Helvetica" font-size="33.0" fill="#FEFEFE" transform="matrix(1.00, 0.00, -0.00, -1.00, 293.7, 270.8)"> </text><text xml:space="preserve" font-family="Helvetica-Light,Helvetica" font-size="33.0" fill="#FEFEFE" transform="matrix(1.00, 0.00, -0.00, -1.00, 302.9, 270.8)">s</text><text xml:space="preserve" font-family="Helvetica-Light,Helvetica" font-size="33.0" fill="#FEFEFE" transform="matrix(1.00, 0.00, -0.00, -1.00, 319.4, 270.8)">p</text><text xml:space="preserve" font-family="Helvetica-Light,Helvetica" font-size="33.0" fill="#FEFEFE" transform="matrix(1.00, 0.00, -0.00, -1.00, 339.5, 270.8)">e</text><text xml:space="preserve" font-family="Helvetica-Light,Helvetica" font-size="33.0" fill="#FEFEFE" transform="matrix(1.00, 0.00, -0.00, -1.00, 357.9, 270.8)">c</text><text xml:space="preserve" font-family="Helvetica-Light,Helvetica" font-size="33.0" fill="#FEFEFE" transform="matrix(1.00, 0.00, -0.00, -1.00, 376.2, 270.8)">i</text><text xml:space="preserve" font-family="Helvetica-Light,Helvetica" font-size="33.0" fill="#FEFEFE" transform="matrix(1.00, 0.00, -0.00, -1.00, 383.6, 270.8)">ﬁ</text><text xml:space="preserve" font-family="Helvetica-Light,Helvetica" font-size="33.0" fill="#FEFEFE" transform="matrix(1.00, 0.00, -0.00, -1.00, 400.1, 270.8)">c</text><text xml:space="preserve" font-family="Helvetica-Light,Helvetica" font-size="33.0" fill="#FEFEFE" transform="matrix(1.00, 0.00, -0.00, -1.00, 418.4, 270.8)"> </text><text xml:space="preserve" font-family="Helvetica-Light,Helvetica" font-size="33.0" fill="#FEFEFE" transform="matrix(1.00, 0.00, -0.00, -1.00, 186.4, 230.8)">c</text><text xml:space="preserve" font-family="Helvetica-Light,Helvetica" font-size="33.0" fill="#FEFEFE" transform="matrix(1.00, 0.00, -0.00, -1.00, 204.8, 230.8)">l</text><text xml:space="preserve" font-family="Helvetica-Light,Helvetica" font-size="33.0" fill="#FEFEFE" transform="matrix(1.00, 0.00, -0.00, -1.00, 212.1, 230.8)">u</text><text xml:space="preserve" font-family="Helvetica-Light,Helvetica" font-size="33.0" fill="#FEFEFE" transform="matrix(1.00, 0.00, -0.00, -1.00, 230.4, 230.8)">s</text><text xml:space="preserve" font-family="Helvetica-Light,Helvetica" font-size="33.0" fill="#FEFEFE" transform="matrix(1.00, 0.00, -0.00, -1.00, 246.9, 230.8)">t</text><text xml:space="preserve" font-family="Helvetica-Light,Helvetica" font-size="33.0" fill="#FEFEFE" transform="matrix(1.00, 0.00, -0.00, -1.00, 256.1, 230.8)">e</text><text xml:space="preserve" font-family="Helvetica-Light,Helvetica" font-size="33.0" fill="#FEFEFE" transform="matrix(1.00, 0.00, -0.00, -1.00, 274.5, 230.8)">r</text><text xml:space="preserve" font-family="Helvetica-Light,Helvetica" font-size="33.0" fill="#FEFEFE" transform="matrix(1.00, 0.00, -0.00, -1.00, 285.4, 230.8)">i</text><text xml:space="preserve" font-family="Helvetica-Light,Helvetica" font-size="33.0" fill="#FEFEFE" transform="matrix(1.00, 0.00, -0.00, -1.00, 292.8, 230.8)">n</text><text xml:space="preserve" font-family="Helvetica-Light,Helvetica" font-size="33.0" fill="#FEFEFE" transform="matrix(1.00, 0.00, -0.00, -1.00, 311.1, 230.8)">g</text></g></g><image xlink:href="../../1A8CF106-3106-479A-A6D3-3361A5EA2176/assets/D1D49DD0E69E88FE1D733AA09E0CA762.png" width="451.00" height="106.00" transform="matrix(1.00, 0.00, -0.00, -1.00, 540.0, 314.0)" opacity="0.50"></image><g><clipPath id="clip0x7faf57da15f0"><path d="M 543.0 228.0 L 543.0 298.0 C 543.0 306.3 549.7 313.0 558.0 313.0 L 973.0 313.0 C 981.3 313.0 988.0 306.3 988.0 298.0 L 988.0 228.0 C 988.0 219.7 981.3 213.0 973.0 213.0 L 558.0 213.0 C 549.7 213.0 543.0 219.7 543.0 228.0 Z M 543.0 228.0 "></path></clipPath><g clip-path="url(#clip0x7faf57da15f0)"><path d="M 543.0 228.0 L 543.0 298.0 C 543.0 306.3 549.7 313.0 558.0 313.0 L 973.0 313.0 C 981.3 313.0 988.0 306.3 988.0 298.0 L 988.0 228.0 C 988.0 219.7 981.3 213.0 973.0 213.0 L 558.0 213.0 C 549.7 213.0 543.0 219.7 543.0 228.0 Z M 543.0 228.0 " fill="url(#gradSh1.20)"></path></g></g><g><clipPath id="clip0x7faf57df0440"><path d="M 539.9 213.0 L 991.1 213.0 L 991.1 313.0 L 539.9 313.0 Z M 539.9 213.0 "></path></clipPath><g clip-path="url(#clip0x7faf57df0440)"><text xml:space="preserve" font-family="Helvetica-Light,Helvetica" font-size="33.0" fill="#FEFEFE" transform="matrix(1.00, 0.00, -0.00, -1.00, 585.8, 270.8)">M</text><text xml:space="preserve" font-family="Helvetica-Light,Helvetica" font-size="33.0" fill="#FEFEFE" transform="matrix(1.00, 0.00, -0.00, -1.00, 613.3, 270.8)">a</text><text xml:space="preserve" font-family="Helvetica-Light,Helvetica" font-size="33.0" fill="#FEFEFE" transform="matrix(1.00, 0.00, -0.00, -1.00, 631.6, 270.8)">x</text><text xml:space="preserve" font-family="Helvetica-Light,Helvetica" font-size="33.0" fill="#FEFEFE" transform="matrix(1.00, 0.00, -0.00, -1.00, 648.1, 270.8)">i</text><text xml:space="preserve" font-family="Helvetica-Light,Helvetica" font-size="33.0" fill="#FEFEFE" transform="matrix(1.00, 0.00, -0.00, -1.00, 655.5, 270.8)">m</text><text xml:space="preserve" font-family="Helvetica-Light,Helvetica" font-size="33.0" fill="#FEFEFE" transform="matrix(1.00, 0.00, -0.00, -1.00, 683.0, 270.8)">i</text><text xml:space="preserve" font-family="Helvetica-Light,Helvetica" font-size="33.0" fill="#FEFEFE" transform="matrix(1.00, 0.00, -0.00, -1.00, 690.3, 270.8)">z</text><text xml:space="preserve" font-family="Helvetica-Light,Helvetica" font-size="33.0" fill="#FEFEFE" transform="matrix(1.00, 0.00, -0.00, -1.00, 706.8, 270.8)">e</text><text xml:space="preserve" font-family="Helvetica-Light,Helvetica" font-size="33.0" fill="#FEFEFE" transform="matrix(1.00, 0.00, -0.00, -1.00, 725.1, 270.8)"> </text><text xml:space="preserve" font-family="Helvetica-Light,Helvetica" font-size="33.0" fill="#FEFEFE" transform="matrix(1.00, 0.00, -0.00, -1.00, 734.3, 270.8)">#</text><text xml:space="preserve" font-family="Helvetica-Light,Helvetica" font-size="33.0" fill="#FEFEFE" transform="matrix(1.00, 0.00, -0.00, -1.00, 752.7, 270.8)"> </text><text xml:space="preserve" font-family="Helvetica-Light,Helvetica" font-size="33.0" fill="#FEFEFE" transform="matrix(1.00, 0.00, -0.00, -1.00, 761.8, 270.8)">c</text><text xml:space="preserve" font-family="Helvetica-Light,Helvetica" font-size="33.0" fill="#FEFEFE" transform="matrix(1.00, 0.00, -0.00, -1.00, 780.2, 270.8)">l</text><text xml:space="preserve" font-family="Helvetica-Light,Helvetica" font-size="33.0" fill="#FEFEFE" transform="matrix(1.00, 0.00, -0.00, -1.00, 787.5, 270.8)">u</text><text xml:space="preserve" font-family="Helvetica-Light,Helvetica" font-size="33.0" fill="#FEFEFE" transform="matrix(1.00, 0.00, -0.00, -1.00, 805.9, 270.8)">s</text><text xml:space="preserve" font-family="Helvetica-Light,Helvetica" font-size="33.0" fill="#FEFEFE" transform="matrix(1.00, 0.00, -0.00, -1.00, 822.4, 270.8)">t</text><text xml:space="preserve" font-family="Helvetica-Light,Helvetica" font-size="33.0" fill="#FEFEFE" transform="matrix(1.00, 0.00, -0.00, -1.00, 831.5, 270.8)">e</text><text xml:space="preserve" font-family="Helvetica-Light,Helvetica" font-size="33.0" fill="#FEFEFE" transform="matrix(1.00, 0.00, -0.00, -1.00, 849.9, 270.8)">r</text><text xml:space="preserve" font-family="Helvetica-Light,Helvetica" font-size="33.0" fill="#FEFEFE" transform="matrix(1.00, 0.00, -0.00, -1.00, 860.9, 270.8)">s</text><text xml:space="preserve" font-family="Helvetica-Light,Helvetica" font-size="33.0" fill="#FEFEFE" transform="matrix(1.00, 0.00, -0.00, -1.00, 877.4, 270.8)"> </text><text xml:space="preserve" font-family="Helvetica-Light,Helvetica" font-size="33.0" fill="#FEFEFE" transform="matrix(1.00, 0.00, -0.00, -1.00, 886.5, 270.8)">w</text><text xml:space="preserve" font-family="Helvetica-Light,Helvetica" font-size="33.0" fill="#FEFEFE" transform="matrix(1.00, 0.00, -0.00, -1.00, 910.4, 270.8)">i</text><text xml:space="preserve" font-family="Helvetica-Light,Helvetica" font-size="33.0" fill="#FEFEFE" transform="matrix(1.00, 0.00, -0.00, -1.00, 917.7, 270.8)">t</text><text xml:space="preserve" font-family="Helvetica-Light,Helvetica" font-size="33.0" fill="#FEFEFE" transform="matrix(1.00, 0.00, -0.00, -1.00, 926.9, 270.8)">h</text><text xml:space="preserve" font-family="Helvetica-Light,Helvetica" font-size="33.0" fill="#FEFEFE" transform="matrix(1.00, 0.00, -0.00, -1.00, 945.2, 270.8)"> </text><text xml:space="preserve" font-family="Helvetica-Light,Helvetica" font-size="33.0" fill="#FEFEFE" transform="matrix(1.00, 0.00, -0.00, -1.00, 596.8, 230.8)">s</text><text xml:space="preserve" font-family="Helvetica-Light,Helvetica" font-size="33.0" fill="#FEFEFE" transform="matrix(1.00, 0.00, -0.00, -1.00, 613.3, 230.8)">m</text><text xml:space="preserve" font-family="Helvetica-Light,Helvetica" font-size="33.0" fill="#FEFEFE" transform="matrix(1.00, 0.00, -0.00, -1.00, 640.8, 230.8)">a</text><text xml:space="preserve" font-family="Helvetica-Light,Helvetica" font-size="33.0" fill="#FEFEFE" transform="matrix(1.00, 0.00, -0.00, -1.00, 659.1, 230.8)">l</text><text xml:space="preserve" font-family="Helvetica-Light,Helvetica" font-size="33.0" fill="#FEFEFE" transform="matrix(1.00, 0.00, -0.00, -1.00, 666.5, 230.8)">l</text><text xml:space="preserve" font-family="Helvetica-Light,Helvetica" font-size="33.0" fill="#FEFEFE" transform="matrix(1.00, 0.00, -0.00, -1.00, 673.8, 230.8)">e</text><text xml:space="preserve" font-family="Helvetica-Light,Helvetica" font-size="33.0" fill="#FEFEFE" transform="matrix(1.00, 0.00, -0.00, -1.00, 692.1, 230.8)">s</text><text xml:space="preserve" font-family="Helvetica-Light,Helvetica" font-size="33.0" fill="#FEFEFE" transform="matrix(1.00, 0.00, -0.00, -1.00, 708.6, 230.8)">t</text><text xml:space="preserve" font-family="Helvetica-Light,Helvetica" font-size="33.0" fill="#FEFEFE" transform="matrix(1.00, 0.00, -0.00, -1.00, 717.8, 230.8)"> </text><text xml:space="preserve" font-family="Helvetica-Light,Helvetica" font-size="33.0" fill="#FEFEFE" transform="matrix(1.00, 0.00, -0.00, -1.00, 727.0, 230.8)">n</text><text xml:space="preserve" font-family="Helvetica-Light,Helvetica" font-size="33.0" fill="#FEFEFE" transform="matrix(1.00, 0.00, -0.00, -1.00, 745.3, 230.8)">e</text><text xml:space="preserve" font-family="Helvetica-Light,Helvetica" font-size="33.0" fill="#FEFEFE" transform="matrix(1.00, 0.00, -0.00, -1.00, 763.7, 230.8)">i</text><text xml:space="preserve" font-family="Helvetica-Light,Helvetica" font-size="33.0" fill="#FEFEFE" transform="matrix(1.00, 0.00, -0.00, -1.00, 771.0, 230.8)">g</text><text xml:space="preserve" font-family="Helvetica-Light,Helvetica" font-size="33.0" fill="#FEFEFE" transform="matrix(1.00, 0.00, -0.00, -1.00, 791.2, 230.8)">h</text><text xml:space="preserve" font-family="Helvetica-Light,Helvetica" font-size="33.0" fill="#FEFEFE" transform="matrix(1.00, 0.00, -0.00, -1.00, 809.5, 230.8)">b</text><text xml:space="preserve" font-family="Helvetica-Light,Helvetica" font-size="33.0" fill="#FEFEFE" transform="matrix(1.00, 0.00, -0.00, -1.00, 829.7, 230.8)">o</text><text xml:space="preserve" font-family="Helvetica-Light,Helvetica" font-size="33.0" fill="#FEFEFE" transform="matrix(1.00, 0.00, -0.00, -1.00, 848.0, 230.8)">r</text><text xml:space="preserve" font-family="Helvetica-Light,Helvetica" font-size="33.0" fill="#FEFEFE" transform="matrix(1.00, 0.00, -0.00, -1.00, 859.0, 230.8)">h</text><text xml:space="preserve" font-family="Helvetica-Light,Helvetica" font-size="33.0" fill="#FEFEFE" transform="matrix(1.00, 0.00, -0.00, -1.00, 877.4, 230.8)">o</text><text xml:space="preserve" font-family="Helvetica-Light,Helvetica" font-size="33.0" fill="#FEFEFE" transform="matrix(1.00, 0.00, -0.00, -1.00, 895.7, 230.8)">o</text><text xml:space="preserve" font-family="Helvetica-Light,Helvetica" font-size="33.0" fill="#FEFEFE" transform="matrix(1.00, 0.00, -0.00, -1.00, 914.1, 230.8)">d</text></g></g><image xlink:href="../../1A8CF106-3106-479A-A6D3-3361A5EA2176/assets/1C9EB1AD5F8F3F1E61C291656981B39C.png" width="451.00" height="106.00" transform="matrix(1.00, 0.00, -0.00, -1.00, 33.4, 193.0)" opacity="0.50"></image><g><clipPath id="clip0x7faf580080e0"><path d="M 36.4 107.0 L 36.0 177.0 C 36.0 185.3 43.1 192.0 51.3 192.0 L 466.4 192.0 C 474.6 192.0 481.0 185.3 481.0 177.0 L 481.0 107.0 C 481.0 98.7 474.6 92.0 466.4 92.0 L 51.3 92.0 C 43.1 92.0 36.4 98.7 36.4 107.0 Z M 36.4 107.0 "></path></clipPath><g clip-path="url(#clip0x7faf580080e0)"><path d="M 36.4 107.0 L 36.0 177.0 C 36.0 185.3 43.1 192.0 51.3 192.0 L 466.4 192.0 C 474.6 192.0 481.0 185.3 481.0 177.0 L 481.0 107.0 C 481.0 98.7 474.6 92.0 466.4 92.0 L 51.3 92.0 C 43.1 92.0 36.4 98.7 36.4 107.0 Z M 36.4 107.0 " fill="url(#gradSh1.21)"></path></g></g><g><clipPath id="clip0x7faf58059e00"><path d="M 32.1 92.0 L 485.6 92.0 L 485.6 192.0 L 32.1 192.0 Z M 32.1 92.0 "></path></clipPath><g clip-path="url(#clip0x7faf58059e00)"><text xml:space="preserve" font-family="Helvetica-Light,Helvetica" font-size="33.0" fill="#FEFEFE" transform="matrix(1.00, 0.00, -0.00, -1.00, 103.5, 129.7)">R</text><text xml:space="preserve" font-family="Helvetica-Light,Helvetica" font-size="33.0" fill="#FEFEFE" transform="matrix(1.00, 0.00, -0.00, -1.00, 125.6, 129.7)">e</text><text xml:space="preserve" font-family="Helvetica-Light,Helvetica" font-size="33.0" fill="#FEFEFE" transform="matrix(1.00, 0.00, -0.00, -1.00, 143.9, 129.7)">t</text><text xml:space="preserve" font-family="Helvetica-Light,Helvetica" font-size="33.0" fill="#FEFEFE" transform="matrix(1.00, 0.00, -0.00, -1.00, 153.1, 129.7)">u</text><text xml:space="preserve" font-family="Helvetica-Light,Helvetica" font-size="33.0" fill="#FEFEFE" transform="matrix(1.00, 0.00, -0.00, -1.00, 171.4, 129.7)">r</text><text xml:space="preserve" font-family="Helvetica-Light,Helvetica" font-size="33.0" fill="#FEFEFE" transform="matrix(1.00, 0.00, -0.00, -1.00, 183.0, 129.7)">n</text><text xml:space="preserve" font-family="Helvetica-Light,Helvetica" font-size="33.0" fill="#FEFEFE" transform="matrix(1.00, 0.00, -0.00, -1.00, 201.4, 129.7)"> </text><text xml:space="preserve" font-family="Helvetica-Light,Helvetica" font-size="33.0" fill="#FEFEFE" transform="matrix(1.00, 0.00, -0.00, -1.00, 210.5, 129.7)">o</text><text xml:space="preserve" font-family="Helvetica-Light,Helvetica" font-size="33.0" fill="#FEFEFE" transform="matrix(1.00, 0.00, -0.00, -1.00, 228.9, 129.7)">u</text><text xml:space="preserve" font-family="Helvetica-Light,Helvetica" font-size="33.0" fill="#FEFEFE" transform="matrix(1.00, 0.00, -0.00, -1.00, 247.2, 129.7)">t</text><text xml:space="preserve" font-family="Helvetica-Light,Helvetica" font-size="33.0" fill="#FEFEFE" transform="matrix(1.00, 0.00, -0.00, -1.00, 256.4, 129.7)">p</text><text xml:space="preserve" font-family="Helvetica-Light,Helvetica" font-size="33.0" fill="#FEFEFE" transform="matrix(1.00, 0.00, -0.00, -1.00, 276.6, 129.7)">u</text><text xml:space="preserve" font-family="Helvetica-Light,Helvetica" font-size="33.0" fill="#FEFEFE" transform="matrix(1.00, 0.00, -0.00, -1.00, 294.9, 129.7)">t</text><text xml:space="preserve" font-family="Helvetica-Light,Helvetica" font-size="33.0" fill="#FEFEFE" transform="matrix(1.00, 0.00, -0.00, -1.00, 304.1, 129.7)"> </text><text xml:space="preserve" font-family="Helvetica-Light,Helvetica" font-size="33.0" fill="#FEFEFE" transform="matrix(1.00, 0.00, -0.00, -1.00, 313.3, 129.7)">t</text><text xml:space="preserve" font-family="Helvetica-Light,Helvetica" font-size="33.0" fill="#FEFEFE" transform="matrix(1.00, 0.00, -0.00, -1.00, 322.4, 129.7)">o</text><text xml:space="preserve" font-family="Helvetica-Light,Helvetica" font-size="33.0" fill="#FEFEFE" transform="matrix(1.00, 0.00, -0.00, -1.00, 340.8, 129.7)"> </text><text xml:space="preserve" font-family="Helvetica-Light,Helvetica" font-size="33.0" fill="#FEFEFE" transform="matrix(1.00, 0.00, -0.00, -1.00, 350.0, 129.7)">u</text><text xml:space="preserve" font-family="Helvetica-Light,Helvetica" font-size="33.0" fill="#FEFEFE" transform="matrix(1.00, 0.00, -0.00, -1.00, 368.3, 129.7)">s</text><text xml:space="preserve" font-family="Helvetica-Light,Helvetica" font-size="33.0" fill="#FEFEFE" transform="matrix(1.00, 0.00, -0.00, -1.00, 384.8, 129.7)">e</text><text xml:space="preserve" font-family="Helvetica-Light,Helvetica" font-size="33.0" fill="#FEFEFE" transform="matrix(1.00, 0.00, -0.00, -1.00, 403.2, 129.7)">r</text></g></g><image xlink:href="../../1A8CF106-3106-479A-A6D3-3361A5EA2176/assets/1C9EB1AD5F8F3F1E61C291656981B39C.png" width="451.00" height="106.00" transform="matrix(1.00, 0.00, -0.00, -1.00, 33.4, 435.0)" opacity="0.50"></image><g><clipPath id="clip0x7faf58063790"><path d="M 36.4 349.0 L 36.0 419.0 C 36.0 427.3 43.1 434.0 51.3 434.0 L 466.4 434.0 C 474.6 434.0 481.0 427.3 481.0 419.0 L 481.0 349.0 C 481.0 340.7 474.6 334.0 466.4 334.0 L 51.3 334.0 C 43.1 334.0 36.4 340.7 36.4 349.0 Z M 36.4 349.0 "></path></clipPath><g clip-path="url(#clip0x7faf58063790)"><path d="M 36.4 349.0 L 36.0 419.0 C 36.0 427.3 43.1 434.0 51.3 434.0 L 466.4 434.0 C 474.6 434.0 481.0 427.3 481.0 419.0 L 481.0 349.0 C 481.0 340.7 474.6 334.0 466.4 334.0 L 51.3 334.0 C 43.1 334.0 36.4 340.7 36.4 349.0 Z M 36.4 349.0 " fill="url(#gradSh1.22)"></path></g></g><g><clipPath id="clip0x7faf580b5c50"><path d="M 32.1 334.0 L 485.6 334.0 L 485.6 434.0 L 32.1 434.0 Z M 32.1 334.0 "></path></clipPath><g clip-path="url(#clip0x7faf580b5c50)"><text xml:space="preserve" font-family="Helvetica-Light,Helvetica" font-size="33.0" fill="#FEFEFE" transform="matrix(1.00, 0.00, -0.00, -1.00, 105.7, 371.7)">O</text><text xml:space="preserve" font-family="Helvetica-Light,Helvetica" font-size="33.0" fill="#FEFEFE" transform="matrix(1.00, 0.00, -0.00, -1.00, 131.4, 371.7)">n</text><text xml:space="preserve" font-family="Helvetica-Light,Helvetica" font-size="33.0" fill="#FEFEFE" transform="matrix(1.00, 0.00, -0.00, -1.00, 149.7, 371.7)">l</text><text xml:space="preserve" font-family="Helvetica-Light,Helvetica" font-size="33.0" fill="#FEFEFE" transform="matrix(1.00, 0.00, -0.00, -1.00, 157.0, 371.7)">i</text><text xml:space="preserve" font-family="Helvetica-Light,Helvetica" font-size="33.0" fill="#FEFEFE" transform="matrix(1.00, 0.00, -0.00, -1.00, 164.4, 371.7)">n</text><text xml:space="preserve" font-family="Helvetica-Light,Helvetica" font-size="33.0" fill="#FEFEFE" transform="matrix(1.00, 0.00, -0.00, -1.00, 182.7, 371.7)">e</text><text xml:space="preserve" font-family="Helvetica-Light,Helvetica" font-size="33.0" fill="#FEFEFE" transform="matrix(1.00, 0.00, -0.00, -1.00, 201.1, 371.7)"> </text><text xml:space="preserve" font-family="Helvetica-Light,Helvetica" font-size="33.0" fill="#FEFEFE" transform="matrix(1.00, 0.00, -0.00, -1.00, 210.2, 371.7)">d</text><text xml:space="preserve" font-family="Helvetica-Light,Helvetica" font-size="33.0" fill="#FEFEFE" transform="matrix(1.00, 0.00, -0.00, -1.00, 230.4, 371.7)">a</text><text xml:space="preserve" font-family="Helvetica-Light,Helvetica" font-size="33.0" fill="#FEFEFE" transform="matrix(1.00, 0.00, -0.00, -1.00, 248.7, 371.7)">t</text><text xml:space="preserve" font-family="Helvetica-Light,Helvetica" font-size="33.0" fill="#FEFEFE" transform="matrix(1.00, 0.00, -0.00, -1.00, 257.9, 371.7)">a</text><text xml:space="preserve" font-family="Helvetica-Light,Helvetica" font-size="33.0" fill="#FEFEFE" transform="matrix(1.00, 0.00, -0.00, -1.00, 276.3, 371.7)"> </text><text xml:space="preserve" font-family="Helvetica-Light,Helvetica" font-size="33.0" fill="#FEFEFE" transform="matrix(1.00, 0.00, -0.00, -1.00, 285.4, 371.7)">c</text><text xml:space="preserve" font-family="Helvetica-Light,Helvetica" font-size="33.0" fill="#FEFEFE" transform="matrix(1.00, 0.00, -0.00, -1.00, 303.8, 371.7)">l</text><text xml:space="preserve" font-family="Helvetica-Light,Helvetica" font-size="33.0" fill="#FEFEFE" transform="matrix(1.00, 0.00, -0.00, -1.00, 311.1, 371.7)">e</text><text xml:space="preserve" font-family="Helvetica-Light,Helvetica" font-size="33.0" fill="#FEFEFE" transform="matrix(1.00, 0.00, -0.00, -1.00, 329.5, 371.7)">a</text><text xml:space="preserve" font-family="Helvetica-Light,Helvetica" font-size="33.0" fill="#FEFEFE" transform="matrix(1.00, 0.00, -0.00, -1.00, 347.8, 371.7)">n</text><text xml:space="preserve" font-family="Helvetica-Light,Helvetica" font-size="33.0" fill="#FEFEFE" transform="matrix(1.00, 0.00, -0.00, -1.00, 366.2, 371.7)">i</text><text xml:space="preserve" font-family="Helvetica-Light,Helvetica" font-size="33.0" fill="#FEFEFE" transform="matrix(1.00, 0.00, -0.00, -1.00, 373.5, 371.7)">n</text><text xml:space="preserve" font-family="Helvetica-Light,Helvetica" font-size="33.0" fill="#FEFEFE" transform="matrix(1.00, 0.00, -0.00, -1.00, 391.8, 371.7)">g</text></g></g><image xlink:href="../../1A8CF106-3106-479A-A6D3-3361A5EA2176/assets/D1820C2A0D36B16A939EB78BC870F2A3.jpeg" width="3564.00" height="1189.00" transform="matrix(0.09, 0.00, -0.00, -0.09, 680.2, 587.1)"></image><image xlink:href="../../1A8CF106-3106-479A-A6D3-3361A5EA2176/assets/0B573529FB9D0F596611813C4CFB5C35.png" width="297.00" height="55.00" transform="matrix(1.00, 0.00, -0.00, -1.00, 617.0, 464.4)"></image><path d="M 0.1 -0.2 L 14.5 -0.2 L 16.1 -0.2 " fill="none" stroke="#000000" stroke-width="4.00" transform="matrix(0.00, -1.00, -1.00, 0.00, 258.8, 581.1)"></path><path d="M 250.6 567.0 L 259.0 550.2 L 267.4 567.0 Z M 250.6 567.0 " fill="#000000"></path><image xlink:href="../../1A8CF106-3106-479A-A6D3-3361A5EA2176/assets/D1D49DD0E69E88FE1D733AA09E0CA762.png" width="451.00" height="106.00" transform="matrix(1.00, 0.00, -0.00, -1.00, 540.0, 193.0)" opacity="0.50"></image><g><clipPath id="clip0x7faf57c79810"><path d="M 543.0 107.0 L 543.0 177.0 C 543.0 185.3 549.7 192.0 558.0 192.0 L 973.0 192.0 C 981.3 192.0 988.0 185.3 988.0 177.0 L 988.0 107.0 C 988.0 98.7 981.3 92.0 973.0 92.0 L 558.0 92.0 C 549.7 92.0 543.0 98.7 543.0 107.0 Z M 543.0 107.0 "></path></clipPath><g clip-path="url(#clip0x7faf57c79810)"><path d="M 543.0 107.0 L 543.0 177.0 C 543.0 185.3 549.7 192.0 558.0 192.0 L 973.0 192.0 C 981.3 192.0 988.0 185.3 988.0 177.0 L 988.0 107.0 C 988.0 98.7 981.3 92.0 973.0 92.0 L 558.0 92.0 C 549.7 92.0 543.0 98.7 543.0 107.0 Z M 543.0 107.0 " fill="url(#gradSh1.23)"></path></g></g><g><clipPath id="clip0x7faf57cc4e80"><path d="M 539.9 92.0 L 991.1 92.0 L 991.1 192.0 L 539.9 192.0 Z M 539.9 92.0 "></path></clipPath><g clip-path="url(#clip0x7faf57cc4e80)"><text xml:space="preserve" font-family="Helvetica-Light,Helvetica" font-size="33.0" fill="#FEFEFE" transform="matrix(1.00, 0.00, -0.00, -1.00, 581.5, 149.8)">S</text><text xml:space="preserve" font-family="Helvetica-Light,Helvetica" font-size="33.0" fill="#FEFEFE" transform="matrix(1.00, 0.00, -0.00, -1.00, 601.7, 149.8)">a</text><text xml:space="preserve" font-family="Helvetica-Light,Helvetica" font-size="33.0" fill="#FEFEFE" transform="matrix(1.00, 0.00, -0.00, -1.00, 620.0, 149.8)">v</text><text xml:space="preserve" font-family="Helvetica-Light,Helvetica" font-size="33.0" fill="#FEFEFE" transform="matrix(1.00, 0.00, -0.00, -1.00, 636.5, 149.8)">e</text><text xml:space="preserve" font-family="Helvetica-Light,Helvetica" font-size="33.0" fill="#FEFEFE" transform="matrix(1.00, 0.00, -0.00, -1.00, 654.8, 149.8)"> </text><text xml:space="preserve" font-family="Helvetica-Light,Helvetica" font-size="33.0" fill="#FEFEFE" transform="matrix(1.00, 0.00, -0.00, -1.00, 664.0, 149.8)">t</text><text xml:space="preserve" font-family="Helvetica-Light,Helvetica" font-size="33.0" fill="#FEFEFE" transform="matrix(1.00, 0.00, -0.00, -1.00, 673.2, 149.8)">o</text><text xml:space="preserve" font-family="Helvetica-Light,Helvetica" font-size="33.0" fill="#FEFEFE" transform="matrix(1.00, 0.00, -0.00, -1.00, 691.5, 149.8)"> </text><text xml:space="preserve" font-family="Helvetica-Light,Helvetica" font-size="33.0" fill="#FEFEFE" transform="matrix(1.00, 0.00, -0.00, -1.00, 700.7, 149.8)">M</text><text xml:space="preserve" font-family="Helvetica-Light,Helvetica" font-size="33.0" fill="#FEFEFE" transform="matrix(1.00, 0.00, -0.00, -1.00, 728.2, 149.8)">y</text><text xml:space="preserve" font-family="Helvetica-Light,Helvetica" font-size="33.0" fill="#FEFEFE" transform="matrix(1.00, 0.00, -0.00, -1.00, 744.7, 149.8)">S</text><text xml:space="preserve" font-family="Helvetica-Light,Helvetica" font-size="33.0" fill="#FEFEFE" transform="matrix(1.00, 0.00, -0.00, -1.00, 764.9, 149.8)">Q</text><text xml:space="preserve" font-family="Helvetica-Light,Helvetica" font-size="33.0" fill="#FEFEFE" transform="matrix(1.00, 0.00, -0.00, -1.00, 790.5, 149.8)">L</text><text xml:space="preserve" font-family="Helvetica-Light,Helvetica" font-size="33.0" fill="#FEFEFE" transform="matrix(1.00, 0.00, -0.00, -1.00, 808.9, 149.8)"> </text><text xml:space="preserve" font-family="Helvetica-Light,Helvetica" font-size="33.0" fill="#FEFEFE" transform="matrix(1.00, 0.00, -0.00, -1.00, 818.1, 149.8)">f</text><text xml:space="preserve" font-family="Helvetica-Light,Helvetica" font-size="33.0" fill="#FEFEFE" transform="matrix(1.00, 0.00, -0.00, -1.00, 827.2, 149.8)">o</text><text xml:space="preserve" font-family="Helvetica-Light,Helvetica" font-size="33.0" fill="#FEFEFE" transform="matrix(1.00, 0.00, -0.00, -1.00, 845.6, 149.8)">r</text><text xml:space="preserve" font-family="Helvetica-Light,Helvetica" font-size="33.0" fill="#FEFEFE" transform="matrix(1.00, 0.00, -0.00, -1.00, 856.6, 149.8)"> </text><text xml:space="preserve" font-family="Helvetica-Light,Helvetica" font-size="33.0" fill="#FEFEFE" transform="matrix(1.00, 0.00, -0.00, -1.00, 865.8, 149.8)">f</text><text xml:space="preserve" font-family="Helvetica-Light,Helvetica" font-size="33.0" fill="#FEFEFE" transform="matrix(1.00, 0.00, -0.00, -1.00, 874.9, 149.8)">u</text><text xml:space="preserve" font-family="Helvetica-Light,Helvetica" font-size="33.0" fill="#FEFEFE" transform="matrix(1.00, 0.00, -0.00, -1.00, 893.3, 149.8)">t</text><text xml:space="preserve" font-family="Helvetica-Light,Helvetica" font-size="33.0" fill="#FEFEFE" transform="matrix(1.00, 0.00, -0.00, -1.00, 902.4, 149.8)">u</text><text xml:space="preserve" font-family="Helvetica-Light,Helvetica" font-size="33.0" fill="#FEFEFE" transform="matrix(1.00, 0.00, -0.00, -1.00, 920.8, 149.8)">r</text><text xml:space="preserve" font-family="Helvetica-Light,Helvetica" font-size="33.0" fill="#FEFEFE" transform="matrix(1.00, 0.00, -0.00, -1.00, 931.2, 149.8)">e</text><text xml:space="preserve" font-family="Helvetica-Light,Helvetica" font-size="33.0" fill="#FEFEFE" transform="matrix(1.00, 0.00, -0.00, -1.00, 949.5, 149.8)"> </text><text xml:space="preserve" font-family="Helvetica-Light,Helvetica" font-size="33.0" fill="#FEFEFE" transform="matrix(1.00, 0.00, -0.00, -1.00, 725.2, 109.8)">s</text><text xml:space="preserve" font-family="Helvetica-Light,Helvetica" font-size="33.0" fill="#FEFEFE" transform="matrix(1.00, 0.00, -0.00, -1.00, 741.7, 109.8)">t</text><text xml:space="preserve" font-family="Helvetica-Light,Helvetica" font-size="33.0" fill="#FEFEFE" transform="matrix(1.00, 0.00, -0.00, -1.00, 750.8, 109.8)">u</text><text xml:space="preserve" font-family="Helvetica-Light,Helvetica" font-size="33.0" fill="#FEFEFE" transform="matrix(1.00, 0.00, -0.00, -1.00, 769.2, 109.8)">d</text><text xml:space="preserve" font-family="Helvetica-Light,Helvetica" font-size="33.0" fill="#FEFEFE" transform="matrix(1.00, 0.00, -0.00, -1.00, 789.4, 109.8)">y</text></g></g><image xlink:href="../../1A8CF106-3106-479A-A6D3-3361A5EA2176/assets/7E810306BFED87FF24AC1E71EB745DE0.png" width="71.00" height="100.00" transform="matrix(1.00, 0.00, -0.00, -1.00, 625.6, 660.8)"></image><image xlink:href="../../1A8CF106-3106-479A-A6D3-3361A5EA2176/assets/CA153CC987186E33CDB1079FB0817C64.png" width="170.00" height="115.00" transform="matrix(1.00, 0.00, -0.00, -1.00, 735.0, 715.5)"></image><image xlink:href="../../1A8CF106-3106-479A-A6D3-3361A5EA2176/assets/8D0B09E2AD97740082F2AF75CA6F18D7.png" width="211.00" height="71.00" transform="matrix(1.00, 0.00, -0.00, -1.00, 773.7, 405.0)"></image><path d="M 0.1 -0.2 L 14.5 -0.2 L 16.1 -0.2 " fill="none" stroke="#000000" stroke-width="4.00" transform="matrix(0.00, -1.00, -1.00, 0.00, 258.8, 460.1)"></path><path d="M 250.6 446.0 L 259.0 429.2 L 267.4 446.0 Z M 250.6 446.0 " fill="#000000"></path><path d="M 0.1 -0.2 L 14.5 -0.2 L 16.1 -0.2 " fill="none" stroke="#000000" stroke-width="4.00" transform="matrix(0.00, -1.00, -1.00, 0.00, 258.8, 339.1)"></path><path d="M 250.6 325.0 L 259.0 308.2 L 267.4 325.0 Z M 250.6 325.0 " fill="#000000"></path><path d="M 0.1 -0.2 L 14.5 -0.2 L 16.1 -0.2 " fill="none" stroke="#000000" stroke-width="4.00" transform="matrix(0.00, -1.00, -1.00, 0.00, 258.8, 218.1)"></path><path d="M 250.6 204.0 L 259.0 187.2 L 267.4 204.0 Z M 250.6 204.0 " fill="#000000"></path><path d="M 0.1 -0.5 L 14.5 -0.5 L 16.1 -0.5 " fill="none" stroke="#000000" stroke-width="4.00" transform="matrix(0.00, -1.00, -1.00, 0.00, 765.5, 218.1)"></path><path d="M 757.6 204.0 L 766.0 187.2 L 774.4 204.0 Z M 757.6 204.0 " fill="#000000"></path><path d="M 0.2 0.0 L 37.9 0.0 L 40.2 0.0 " fill="none" stroke="#000000" stroke-width="4.00" transform="matrix(1.00, 0.00, 0.00, -1.00, 484.8, 263.0)"></path><path d="M 523.0 254.6 L 539.8 263.0 L 523.0 271.4 Z M 523.0 254.6 " fill="#000000"></path></g></svg>